<svg viewBox="0 0 48 48" xmlns="http://www.w3.org/2000/svg"><path d="M23.9913 38C23.5638 38 23.2083 37.8563 22.925 37.5688C22.6417 37.2813 22.5 36.925 22.5 36.5V25.5H11.5C11.075 25.5 10.7188 25.3554 10.4313 25.0663C10.1438 24.7771 10 24.4187 10 23.9913C10 23.5638 10.1438 23.2083 10.4313 22.925C10.7188 22.6417 11.075 22.5 11.5 22.5H22.5V11.5C22.5 11.075 22.6446 10.7188 22.9337 10.4313C23.2229 10.1438 23.5813 10 24.0087 10C24.4362 10 24.7917 10.1438 25.075 10.4313C25.3583 10.7188 25.5 11.075 25.5 11.5V22.5H36.5C36.925 22.5 37.2813 22.6446 37.5688 22.9337C37.8563 23.2229 38 23.5813 38 24.0087C38 24.4362 37.8563 24.7917 37.5688 25.075C37.2813 25.3583 36.925 25.5 36.5 25.5H25.5V36.5C25.5 36.925 25.3554 37.2813 25.0663 37.5688C24.7771 37.8563 24.4187 38 23.9913 38Z" /></svg>
