<svg viewBox="0 0 48 48" xmlns="http://www.w3.org/2000/svg"><path d="M22.95 38.9C22.6833 38.6333 22.55 38.2833 22.55 37.85C22.55 37.4167 22.6833 37.0667 22.95 36.8L34.25 25.5H9.5C9.06667 25.5 8.70833 25.3583 8.425 25.075C8.14167 24.7917 8 24.4333 8 24C8 23.5667 8.14167 23.2083 8.425 22.925C8.70833 22.6417 9.06667 22.5 9.5 22.5H34.25L22.95 11.2C22.6833 10.9333 22.55 10.575 22.55 10.125C22.55 9.67499 22.6833 9.31666 22.95 9.04999C23.2167 8.78333 23.5667 8.64999 24 8.64999C24.4333 8.64999 24.7833 8.78333 25.05 9.04999L38.95 22.95C39.1167 23.1167 39.2333 23.2833 39.3 23.45C39.3667 23.6167 39.4 23.8 39.4 24C39.4 24.1667 39.3667 24.3417 39.3 24.525C39.2333 24.7083 39.1167 24.8833 38.95 25.05L25.05 38.95C24.7833 39.2167 24.4333 39.3417 24 39.325C23.5667 39.3083 23.2167 39.1667 22.95 38.9Z"/></svg>
