<svg viewBox="0 0 48 48" xmlns="http://www.w3.org/2000/svg"><path d="M11.4955 40C10.5318 40 9.70833 39.6573 9.025 38.9719C8.34167 38.2865 8 37.4625 8 36.5V21.5C8 20.5375 8.34315 19.7135 9.02945 19.0281C9.71572 18.3427 10.5407 18 11.5045 18C12.4682 18 13.2917 18.3427 13.975 19.0281C14.6583 19.7135 15 20.5375 15 21.5V36.5C15 37.4625 14.6569 38.2865 13.9706 38.9719C13.2843 39.6573 12.4593 40 11.4955 40ZM23.9956 40C23.0319 40 22.2083 39.6573 21.525 38.9719C20.8417 38.2865 20.5 37.4625 20.5 36.5V11.5C20.5 10.5375 20.8431 9.71353 21.5294 9.0281C22.2157 8.3427 23.0407 8 24.0044 8C24.9681 8 25.7917 8.3427 26.475 9.0281C27.1583 9.71353 27.5 10.5375 27.5 11.5V36.5C27.5 37.4625 27.1569 38.2865 26.4706 38.9719C25.7843 39.6573 24.9593 40 23.9956 40ZM36.4956 40C35.5319 40 34.7083 39.6573 34.025 38.9719C33.3417 38.2865 33 37.4625 33 36.5V29.5C33 28.5375 33.3431 27.7135 34.0294 27.0281C34.7157 26.3427 35.5407 26 36.5044 26C37.4681 26 38.2917 26.3427 38.975 27.0281C39.6583 27.7135 40 28.5375 40 29.5V36.5C40 37.4625 39.6569 38.2865 38.9706 38.9719C38.2843 39.6573 37.4593 40 36.4956 40Z"/></svg>
