<svg viewBox="0 0 48 48" xmlns="http://www.w3.org/2000/svg"><path d="M23.9998 30.15C23.7998 30.15 23.6165 30.1167 23.4498 30.05C23.2831 29.9833 23.1165 29.8667 22.9498 29.7L13.0498 19.8C12.7831 19.5333 12.6581 19.175 12.6748 18.725C12.6915 18.275 12.8331 17.9167 13.0998 17.65C13.4331 17.3167 13.7915 17.175 14.1748 17.225C14.5581 17.275 14.8998 17.4333 15.1998 17.7L23.9998 26.5L32.7998 17.7C33.0665 17.4333 33.4248 17.2833 33.8748 17.25C34.3248 17.2167 34.6831 17.3667 34.9498 17.7C35.2831 17.9667 35.4248 18.3167 35.3748 18.75C35.3248 19.1833 35.1665 19.55 34.8998 19.85L25.0498 29.7C24.8831 29.8667 24.7165 29.9833 24.5498 30.05C24.3831 30.1167 24.1998 30.15 23.9998 30.15Z" /></svg>
