<svg viewBox="0 0 800 800" xmlns="http://www.w3.org/2000/svg"><path d="M523.641 45.3773C519.516 45.3773 515.086 45.3743 510.503 42.3189C506.867 42.3189 503.384 45.3773 499.87 45.3773H496.845H491.896C488.962 48.4326 486.029 48.4311 483.218 51.4865H480.744C478.544 51.4865 476.833 54.5404 474.755 57.5957C472.891 57.5957 470.844 57.5987 469.103 60.6541H468.736C467.117 63.7095 465.528 63.708 463.97 66.7633C462.075 66.7633 459.723 66.7626 457.981 69.818C453.979 75.9287 450.22 78.9841 446.859 85.0948C446.34 85.0948 445.454 88.1494 444.935 88.1494C439.863 94.2601 435.707 103.428 432.102 112.594C428.252 121.76 425.716 130.927 423.028 140.093C422.783 140.093 422.203 143.147 421.989 143.147C421.775 143.147 422.019 146.202 421.806 146.202C416.459 167.59 411.845 188.977 407.567 207.309C407.201 210.365 407.079 210.367 406.712 213.422C404.115 225.644 401.243 237.864 397.485 250.085C394.582 259.251 391.68 271.473 388.777 280.639C384.499 268.418 379.916 253.139 375.639 240.918C356.848 185.921 354.924 127.871 322.558 78.9855C305.237 54.5426 275.307 30.0974 243.293 42.3189C234.683 45.3743 227.554 51.488 222.99 60.6541C203.661 100.374 218.514 146.204 239.367 182.869C269.801 228.699 297.22 274.529 324.623 323.415C298.103 308.138 271.457 292.861 245.334 277.584H242.132C239.654 274.529 236.959 274.527 234.487 271.471C219.128 262.305 203.775 253.142 187.899 243.976H185.235C168.176 234.81 150.819 228.697 131.588 222.586H127.687H110.836H102.327H88.3306C85.8038 225.642 83.1364 225.641 80.7105 225.641H78.2356C75.2628 228.696 72.2929 228.699 69.5645 228.699C67.9085 231.755 66.2372 231.754 64.6087 231.754C60.8014 234.809 57.5704 237.862 54.7276 240.918C54.5388 240.918 54.5617 240.921 54.3766 243.976C51.8125 247.031 49.331 250.085 48.0471 253.14C46.5426 256.195 45.6104 262.307 45.2695 265.362H44.9199C44.6789 271.473 45.2514 274.529 45.8582 277.584C46.0348 277.584 45.4454 280.639 45.6948 280.639C46.2964 280.639 47.1442 283.694 47.8467 283.694C48.8458 286.749 50.1522 289.806 51.6127 292.861C52.045 295.917 52.2339 295.916 52.6888 295.916C53.9482 298.971 56.0121 298.97 57.505 302.025C58.8444 305.08 59.9618 305.083 61.4336 308.138C64.8867 311.193 68.3026 314.25 72.3052 320.36C76.2985 323.416 81.1902 326.469 85.6541 329.524C86.6898 329.524 87.8264 332.579 88.8561 332.579C121.622 353.966 159.6 360.08 197.355 366.191C200.136 366.191 202.928 369.245 205.702 369.245C220.906 372.301 236.201 375.354 250.787 378.409C266.275 384.52 281.806 387.576 297.302 390.631C244.958 408.964 192.473 424.24 139.184 436.462C99.2902 448.683 56.6556 473.126 43.6458 512.846C41.6715 522.012 42.2294 534.234 46.4342 540.345C60.8689 573.954 101.287 573.955 130.603 567.844C186.593 555.623 228.479 512.845 278.26 485.347C290.937 479.236 303.922 473.127 316.629 463.961C311.359 476.182 306.091 485.349 300.815 494.515C294.784 506.736 288.905 515.901 282.715 528.123C270.891 546.455 258.898 567.843 248.073 586.176C247.548 586.176 246.661 589.23 246.133 589.23C245.702 589.23 245.51 592.285 245.085 592.285C236.246 607.562 228.568 625.896 224.956 644.228C224.797 647.284 224.935 647.283 224.791 647.283C223.826 653.394 222.692 662.559 222.579 665.614C222.524 671.725 223.679 674.781 224.241 680.891C224.538 683.947 224.837 687.004 225.344 690.059C225.861 690.059 225.693 693.113 226.444 696.168C226.692 696.168 227.245 699.223 227.52 699.223C228.561 702.278 229.829 705.335 231.287 708.39C232.029 708.39 232.576 711.445 233.438 711.445C235.852 717.556 239.28 720.612 242.882 723.667C246.173 723.667 250.328 726.721 254.618 729.776C258.452 729.776 262.62 729.779 266.864 732.835C270.814 732.835 274.581 732.832 278.385 729.776C279.366 729.776 280.445 732.832 281.401 729.776C286.189 729.776 290.738 726.722 295.025 726.722C295.795 723.666 296.742 723.667 297.503 723.667C299.718 723.667 301.423 720.613 303.507 720.613C307.393 717.557 310.794 714.5 314.277 711.445C316.131 708.39 318.554 708.391 320.284 705.336C324.601 702.28 327.98 696.17 331.381 690.059C331.958 690.059 332.759 690.06 333.318 687.004C356.389 650.34 362.164 607.564 370.688 567.844C373.866 552.567 377.349 540.345 380.771 525.068C383.673 515.902 386.545 503.681 389.478 494.515C393.756 506.736 398.339 522.014 402.617 537.291C421.377 589.232 423.301 647.282 455.688 696.168C473.012 720.611 502.955 748.112 534.945 732.835C543.561 729.779 550.71 723.669 555.263 717.558C574.603 677.838 559.724 628.949 538.886 592.285C508.454 549.51 481.017 500.624 453.641 454.793C467.788 460.904 481.781 470.072 495.927 476.183C508.607 482.294 520.829 488.403 532.928 497.569C536.533 497.569 540.169 500.627 543.774 503.682C558.287 512.848 573.106 522.012 588.047 528.123C588.902 528.123 589.513 531.178 590.338 531.178H593.027C601.826 537.288 610.565 540.344 619.853 543.4C628.53 546.455 637.36 549.512 646.649 552.567H650.56C656.915 552.567 664.095 555.622 670.419 555.622C677.141 555.622 683.405 552.567 689.913 552.567H694.19C696.115 549.512 698.162 549.513 700.026 549.513C701.92 549.513 703.967 549.51 705.862 546.454H708.673C710.353 543.399 712.003 543.4 713.653 543.4C714.478 543.4 714.783 540.345 715.578 540.345C718.419 540.345 721.2 537.291 723.522 534.236H723.888C726.333 531.181 728.532 525.069 730.213 522.014C732.016 518.958 732.535 512.847 732.993 509.792C733.329 506.736 733.054 503.68 732.382 497.569C732.23 497.569 732.81 497.57 732.566 494.515C731.955 494.515 731.099 491.46 730.396 491.46C729.174 488.405 728.166 485.348 726.638 482.292C726.241 482.292 725.997 479.238 725.569 479.238C724.958 479.238 724.224 476.183 723.613 476.183C721.597 473.128 719.244 470.071 716.83 467.016H715.944C714.508 467.016 713.164 463.961 711.667 463.961C710.353 460.906 709.62 460.907 708.275 457.852C707.512 457.852 706.717 457.849 705.953 454.793C700.943 451.738 695.107 448.686 689.393 442.575C681.419 439.52 673.23 433.408 664.675 430.353C655.57 427.297 646.007 424.24 636.444 421.185H633.786H630.761C614.323 415.074 597.702 412.018 580.897 408.963C576.803 408.963 572.739 405.908 568.645 405.908C539.436 399.798 509.982 390.633 480.956 384.522C533.295 369.245 585.786 350.913 639.071 338.692C678.974 326.47 721.597 302.027 734.613 262.308C736.568 253.141 736.018 243.975 731.832 234.809C717.38 204.255 676.958 201.199 647.657 207.309C591.652 219.531 549.763 262.308 499.991 289.807C487.311 295.917 474.326 302.027 461.616 311.193C466.901 302.027 472.157 289.805 477.443 280.639C484.256 268.418 491.161 256.198 498.188 243.976C509.279 225.644 520.126 207.31 530.178 188.978C531.095 185.923 532.286 185.924 533.172 182.869C537.725 173.703 542.4 167.59 545.791 158.424C548.999 149.258 551.535 140.091 553.307 130.925C553.491 127.87 553.277 127.871 553.46 127.871C554.346 121.76 555.599 115.65 555.66 109.539C555.721 106.484 554.713 103.427 554.56 100.372C554.316 97.3163 553.857 91.2048 552.91 88.1494C552.421 85.094 552.513 82.0409 551.81 78.9855C551.535 78.9855 551.016 78.9863 550.741 75.9309C549.763 72.8756 548.266 69.8187 546.952 66.7633C546.219 66.7633 545.669 63.7087 544.813 63.7087C544.294 63.7087 543.102 60.6541 542.491 60.6541C540.352 57.5987 538.183 54.5411 535.372 54.5411H534.486C531.37 51.4857 527.613 48.4326 523.641 45.3773Z" fill="#C0392B"/><path d="M400.021 33.1562C395.468 32.8431 391.038 33.7425 386.638 35.0658C383.186 36.1795 380.161 37.9852 377.105 39.8398C376.25 40.3648 375.028 40.2111 374.233 40.7946C372.828 41.993 371.728 43.3465 370.414 44.6139C368.062 46.6166 365.801 48.9152 363.723 51.2975C363.173 51.9852 362.379 52.5049 361.829 53.2071C360.24 55.1873 359.415 57.7318 358.009 59.8907C356.757 61.8223 355.29 63.6051 354.19 65.6195C354.037 65.87 354.312 66.3222 354.19 66.5758C353.182 68.4671 352.204 70.3462 351.318 72.3016C350.218 74.6909 348.446 76.5455 347.499 78.9867C345.421 84.5628 344.016 91.2357 342.733 97.1295C342.519 98.0675 341.969 99.0666 341.785 99.9924C339.983 109.275 339.127 118.425 338.913 127.683C338.681 137.583 339.799 147.402 340.808 157.28C340.93 158.197 340.716 159.233 340.808 160.143C340.991 161.13 341.602 162.025 341.785 163.009C344.321 183.997 347.652 205.082 351.318 226.026C351.563 227.636 352.051 229.192 352.296 230.802C354.373 243.173 356.207 255.657 357.062 268.038C358.315 279.18 359.598 290.317 360.881 301.454C351.746 289.993 342.305 278.542 333.185 267.081C296.337 224.832 272.789 170.364 225.29 138.184C200.227 121.835 162.414 107.542 137.449 131.502C130.562 137.503 126.431 146.458 125.038 155.371C121.64 199.445 152.542 237.31 185.192 263.262C230.191 294.415 273.134 328.574 315.998 362.555C286.138 359.133 255.991 355.314 226.247 351.098C224.96 350.884 223.714 350.395 222.427 350.151C219.604 349.753 216.656 349.601 213.833 349.203C196.02 345.904 178.219 342.604 160.364 340.587C159.453 340.496 158.418 340.709 157.501 340.587C138.39 338.638 119.425 337.865 100.213 341.565C99.0059 341.809 97.6219 342.207 96.3936 342.512C91.1292 343.704 85.1743 345.476 80.1604 347.278C77.4259 348.317 75.1955 349.876 72.522 351.098C68.2109 353.084 64.0923 355.222 60.1111 357.789C57.9522 359.194 55.4077 360.019 53.4275 361.608C52.7254 362.158 52.2057 362.953 51.5179 363.502C49.1356 365.58 46.8371 367.841 44.8343 370.194C43.5672 371.508 42.2134 372.607 41.0151 374.013C38.3569 377.679 36.6096 382.049 35.2863 386.418C35.1955 386.723 35.3716 387.09 35.2863 387.395C34.1529 391.49 33.0854 395.553 33.3767 399.8C33.4657 404.139 34.1537 408.416 35.2863 412.205C35.3716 412.511 35.1936 412.847 35.2863 413.183C36.3999 416.635 38.2057 419.66 40.0603 422.715C40.5852 423.571 40.4315 424.793 41.0151 425.588C42.2134 426.993 43.5672 428.093 44.8343 429.407C46.8371 431.759 49.1356 434.02 51.5179 436.098C52.2057 436.648 52.7254 437.442 53.4275 437.992C55.4077 439.581 57.9522 440.406 60.1111 441.812C62.0427 443.064 63.8255 444.531 65.8399 445.631C70.5788 448.228 75.1191 450.428 80.1604 452.322C85.1743 454.125 91.1292 455.897 96.3936 457.088C97.6219 457.394 99.0059 457.791 100.213 458.036C138.325 465.368 176.013 457.424 213.833 450.397C216.656 450 219.604 449.847 222.427 449.45C237.689 446.7 252.987 443.798 268.258 442.759C284.186 440.956 300.061 438.878 315.998 437.045C273.134 471.021 230.191 505.18 185.192 536.345C152.542 562.285 121.64 600.171 125.038 644.23C126.431 653.151 130.562 662.103 137.449 668.092C162.414 692.046 200.227 677.777 225.29 661.401C272.789 629.228 296.337 574.781 333.185 532.525C342.305 521.068 351.746 509.61 360.881 498.152C359.598 509.274 358.315 520.426 357.062 531.548C355.443 543.922 354.068 556.479 352.296 568.793C348.477 591.341 344.505 614.012 341.785 636.591C341.602 637.569 340.991 638.485 340.808 639.463C340.716 640.38 340.93 641.388 340.808 642.335C338.858 661.431 338.085 680.405 341.785 699.593C341.969 700.54 342.519 701.548 342.733 702.465C344.016 708.362 345.421 715.022 347.499 720.614C349.21 725.105 351.929 728.802 354.19 733.019C355.412 735.31 356.604 737.54 358.009 739.71C359.415 741.879 360.24 744.415 361.829 746.401C362.379 747.104 363.173 747.623 363.723 748.295C365.801 750.679 368.062 752.97 370.414 754.987C371.728 756.239 372.828 757.614 374.233 758.806C377.9 761.464 382.269 763.206 386.638 764.55C390.702 765.833 395.377 766.353 400.021 766.444C404.268 766.75 408.331 765.68 412.425 764.55C416.245 763.389 419.636 761.77 422.936 759.753C423.791 759.234 425.014 759.386 425.808 758.806C429.658 755.506 433.202 752.084 436.318 748.295C436.868 747.654 437.663 747.073 438.213 746.401C439.802 744.354 440.657 741.879 442.032 739.71C444.629 735.707 446.707 731.674 448.723 727.305C449.793 724.952 451.626 723.027 452.542 720.614C454.803 714.625 455.964 708.301 457.309 702.465C457.523 701.457 458.073 700.632 458.256 699.593C466.383 657.368 456.087 615.509 448.723 573.589C446.646 559.657 444.812 545.511 442.979 531.548C441.726 520.426 440.443 509.274 439.16 498.152C448.295 509.61 457.737 521.068 466.872 532.525C503.72 574.781 527.246 629.228 574.757 661.401C599.811 677.777 637.637 692.046 662.599 668.092C669.473 662.103 673.598 653.151 675.004 644.23C678.395 600.171 647.505 562.285 614.844 536.345C569.838 505.18 526.91 471.021 484.043 437.045C499.992 438.878 515.85 440.956 531.768 442.759C545.762 443.736 559.816 446.028 573.81 448.503C577.904 449.083 582.121 449.786 586.215 450.397C603.05 453.514 619.946 456.019 636.812 458.036C637.789 458.219 638.706 458.83 639.684 459.013C640.631 459.105 641.609 458.891 642.556 459.013C652.425 460.021 662.232 461.152 672.132 460.908C681.389 460.694 690.556 459.838 699.813 458.036C701.035 457.791 702.41 457.394 703.663 457.088C709.927 455.683 716.862 453.697 722.729 451.375C728.961 448.869 734.369 445.447 739.93 441.812C741.122 441.048 742.588 440.712 743.749 439.887C745.369 438.726 747.019 437.381 748.516 436.098C750.074 434.815 751.816 433.654 753.282 432.248C754.107 431.423 754.474 430.262 755.207 429.407C756.46 428.093 757.835 426.993 759.026 425.588C759.607 424.793 759.454 423.571 759.973 422.715C761.837 419.66 763.64 416.635 764.77 413.183C764.862 412.847 764.679 412.511 764.77 412.205C765.901 408.416 766.573 404.139 766.665 399.8C766.97 395.553 765.901 391.49 764.77 387.395C763.609 383.576 761.99 380.185 759.973 376.885C759.454 376.029 759.607 374.807 759.026 374.013C757.835 372.607 756.46 371.508 755.207 370.194C752.977 367.933 750.93 365.488 748.516 363.502C747.874 362.953 747.294 362.158 746.621 361.608C745.705 360.905 744.697 360.355 743.749 359.714C740.725 357.483 737.516 355.803 734.217 353.97C733.942 353.817 733.514 354.092 733.239 353.97C731.314 352.931 729.511 352.014 727.525 351.098C725.814 350.334 724.47 348.928 722.729 348.226C721.781 347.859 720.834 347.645 719.887 347.278C713.593 344.987 706.505 342.848 699.813 341.565C690.556 339.762 681.389 338.907 672.132 338.693C662.232 338.461 652.425 339.579 642.556 340.587C641.609 340.709 640.631 340.496 639.684 340.587C638.706 340.771 637.789 341.382 636.812 341.565C619.946 343.581 603.05 346.087 586.215 349.203C582.09 349.967 577.904 350.395 573.81 351.098C544.051 355.314 513.894 359.133 484.043 362.555C526.91 328.57 569.838 294.415 614.844 263.262C647.505 237.31 678.395 199.445 675.004 155.371C673.598 146.458 669.473 137.503 662.599 131.502C637.637 107.542 599.811 121.835 574.757 138.184C527.246 170.364 503.72 224.832 466.872 267.081C457.737 278.545 448.295 289.993 439.16 301.454C440.443 290.317 441.726 279.18 442.979 268.038C444.812 254.075 446.646 239.94 448.723 226.026C452.39 205.082 455.72 183.997 458.256 163.009C458.5 161.087 459.02 159.202 459.234 157.28C460.242 147.402 461.372 137.583 461.128 127.683C460.914 118.425 460.059 109.275 458.256 99.9924C458.073 98.9719 457.523 98.1439 457.309 97.1295C455.964 91.2907 454.803 84.9691 452.542 78.9867C451.626 76.5608 449.793 74.6481 448.723 72.3016C446.707 67.9141 444.629 63.884 442.032 59.8907C440.657 57.7336 439.802 55.249 438.213 53.2071C437.663 52.5248 436.868 51.955 436.318 51.2975C434.332 48.8865 431.888 46.8314 429.627 44.6139C428.313 43.3468 427.213 41.993 425.808 40.7946C425.014 40.2111 423.791 40.3648 422.936 39.8398C419.881 37.9852 416.856 36.1795 413.403 35.0658C413.067 34.9732 412.731 35.1511 412.425 35.0658C408.637 33.9332 404.359 33.2452 400.021 33.1562Z" fill="#E74C3C"/><path d="M533.333 400.001C533.333 435.363 519.286 469.277 494.281 494.282C469.276 519.287 435.362 533.335 400 533.335C364.638 533.335 330.724 519.287 305.719 494.282C280.714 469.277 266.667 435.363 266.667 400.001C266.667 364.639 280.714 330.725 305.719 305.72C330.724 280.716 364.638 266.668 400 266.668C435.362 266.668 469.276 280.716 494.281 305.72C519.286 330.725 533.333 364.639 533.333 400.001Z" fill="#C0392B"/><path d="M466.667 399.999C466.667 417.68 459.643 434.637 447.14 447.139C434.638 459.642 417.681 466.665 400 466.665C382.319 466.665 365.362 459.642 352.859 447.139C340.357 434.637 333.333 417.68 333.333 399.999C333.333 382.318 340.357 365.361 352.859 352.858C365.362 340.356 382.319 333.332 400 333.332C417.681 333.332 434.638 340.356 447.14 352.858C459.643 365.361 466.667 382.318 466.667 399.999Z" fill="#E67E22"/></svg>
