<svg viewBox="0 0 48 48" xmlns="http://www.w3.org/2000/svg"><path d="M9 22.5C8.175 22.5 7.46875 22.2063 6.88125 21.6188C6.29375 21.0313 6 20.325 6 19.5V9C6 8.175 6.29375 7.46875 6.88125 6.88125C7.46875 6.29375 8.175 6 9 6H19.5C20.325 6 21.0313 6.29375 21.6188 6.88125C22.2063 7.46875 22.5 8.175 22.5 9V19.5C22.5 20.325 22.2063 21.0313 21.6188 21.6188C21.0313 22.2063 20.325 22.5 19.5 22.5H9ZM9 42C8.175 42 7.46875 41.7063 6.88125 41.1188C6.29375 40.5313 6 39.825 6 39V28.5C6 27.675 6.29375 26.9688 6.88125 26.3813C7.46875 25.7938 8.175 25.5 9 25.5H19.5C20.325 25.5 21.0313 25.7938 21.6188 26.3813C22.2063 26.9688 22.5 27.675 22.5 28.5V39C22.5 39.825 22.2063 40.5313 21.6188 41.1188C21.0313 41.7063 20.325 42 19.5 42H9ZM28.5 22.5C27.675 22.5 26.9688 22.2063 26.3813 21.6188C25.7938 21.0313 25.5 20.325 25.5 19.5V9C25.5 8.175 25.7938 7.46875 26.3813 6.88125C26.9688 6.29375 27.675 6 28.5 6H39C39.825 6 40.5313 6.29375 41.1188 6.88125C41.7063 7.46875 42 8.175 42 9V19.5C42 20.325 41.7063 21.0313 41.1188 21.6188C40.5313 22.2063 39.825 22.5 39 22.5H28.5ZM28.5 42C27.675 42 26.9688 41.7063 26.3813 41.1188C25.7938 40.5313 25.5 39.825 25.5 39V28.5C25.5 27.675 25.7938 26.9688 26.3813 26.3813C26.9688 25.7938 27.675 25.5 28.5 25.5H39C39.825 25.5 40.5313 25.7938 41.1188 26.3813C41.7063 26.9688 42 27.675 42 28.5V39C42 39.825 41.7063 40.5313 41.1188 41.1188C40.5313 41.7063 39.825 42 39 42H28.5ZM9 19.5H19.5V9H9V19.5ZM28.5 19.5H39V9H28.5V19.5ZM28.5 39H39V28.5H28.5V39ZM9 39H19.5V28.5H9V39Z" /></svg>
