<svg viewBox="0 0 48 48" xmlns="http://www.w3.org/2000/svg"><path d="M9 42C8.2 42 7.5 41.7 6.9 41.1C6.3 40.5 6 39.8 6 39V9C6 8.2 6.3 7.5 6.9 6.9C7.5 6.3 8.2 6 9 6H32.9C33.3 6 33.6917 6.08333 34.075 6.25C34.4583 6.41667 34.7833 6.63333 35.05 6.9L41.1 12.95C41.3667 13.2167 41.5833 13.5417 41.75 13.925C41.9167 14.3083 42 14.7 42 15.1V39C42 39.8 41.7 40.5 41.1 41.1C40.5 41.7 39.8 42 39 42H9ZM39 15.2L32.8 9H9V39H39V15.2ZM24 35.75C25.4333 35.75 26.6583 35.2417 27.675 34.225C28.6917 33.2083 29.2 31.9833 29.2 30.55C29.2 29.1167 28.6917 27.8917 27.675 26.875C26.6583 25.8583 25.4333 25.35 24 25.35C22.5667 25.35 21.3417 25.8583 20.325 26.875C19.3083 27.8917 18.8 29.1167 18.8 30.55C18.8 31.9833 19.3083 33.2083 20.325 34.225C21.3417 35.2417 22.5667 35.75 24 35.75ZM13.15 18.8H28.05C28.4833 18.8 28.8417 18.6583 29.125 18.375C29.4083 18.0917 29.55 17.7333 29.55 17.3V13.15C29.55 12.7167 29.4083 12.3583 29.125 12.075C28.8417 11.7917 28.4833 11.65 28.05 11.65H13.15C12.7167 11.65 12.3583 11.7917 12.075 12.075C11.7917 12.3583 11.65 12.7167 11.65 13.15V17.3C11.65 17.7333 11.7917 18.0917 12.075 18.375C12.3583 18.6583 12.7167 18.8 13.15 18.8ZM9 15.2V39V9V15.2Z" /></svg>
