<svg viewBox="0 0 48 48" xmlns="http://www.w3.org/2000/svg"><path d="M27.3002 44H20.7002C20.3335 44 20.0085 43.8833 19.7252 43.65C19.4419 43.4167 19.2669 43.1167 19.2002 42.75L18.4002 37.7C17.7669 37.4667 17.1002 37.15 16.4002 36.75C15.7002 36.35 15.0835 35.9333 14.5502 35.5L9.9002 37.65C9.53353 37.8167 9.16686 37.8417 8.8002 37.725C8.43353 37.6083 8.1502 37.3667 7.9502 37L4.6502 31.15C4.4502 30.8167 4.4002 30.4667 4.5002 30.1C4.6002 29.7333 4.8002 29.4333 5.1002 29.2L9.4002 26.05C9.33353 25.75 9.29186 25.4083 9.2752 25.025C9.25853 24.6417 9.2502 24.3 9.2502 24C9.2502 23.7 9.25853 23.3583 9.2752 22.975C9.29186 22.5917 9.33353 22.25 9.4002 21.95L5.1002 18.8C4.8002 18.5667 4.6002 18.2667 4.5002 17.9C4.4002 17.5333 4.4502 17.1833 4.6502 16.85L7.9502 11C8.1502 10.6333 8.43353 10.3917 8.8002 10.275C9.16686 10.1583 9.53353 10.1833 9.9002 10.35L14.5502 12.5C15.0835 12.0667 15.7002 11.65 16.4002 11.25C17.1002 10.85 17.7669 10.55 18.4002 10.35L19.2002 5.25C19.2669 4.88333 19.4419 4.58333 19.7252 4.35C20.0085 4.11667 20.3335 4 20.7002 4H27.3002C27.6669 4 27.9919 4.11667 28.2752 4.35C28.5585 4.58333 28.7335 4.88333 28.8002 5.25L29.6002 10.3C30.2335 10.5333 30.9085 10.8417 31.6252 11.225C32.3419 11.6083 32.9502 12.0333 33.4502 12.5L38.1002 10.35C38.4669 10.1833 38.8335 10.1583 39.2002 10.275C39.5669 10.3917 39.8502 10.6333 40.0502 11L43.3502 16.8C43.5502 17.1333 43.6085 17.4917 43.5252 17.875C43.4419 18.2583 43.2335 18.5667 42.9002 18.8L38.6002 21.85C38.6669 22.1833 38.7085 22.5417 38.7252 22.925C38.7419 23.3083 38.7502 23.6667 38.7502 24C38.7502 24.3333 38.7419 24.6833 38.7252 25.05C38.7085 25.4167 38.6669 25.7667 38.6002 26.1L42.9002 29.2C43.2002 29.4333 43.4002 29.7333 43.5002 30.1C43.6002 30.4667 43.5502 30.8167 43.3502 31.15L40.0502 37C39.8502 37.3667 39.5669 37.6083 39.2002 37.725C38.8335 37.8417 38.4669 37.8167 38.1002 37.65L33.4502 35.5C32.9169 35.9333 32.3085 36.3583 31.6252 36.775C30.9419 37.1917 30.2669 37.5 29.6002 37.7L28.8002 42.75C28.7335 43.1167 28.5585 43.4167 28.2752 43.65C27.9919 43.8833 27.6669 44 27.3002 44ZM24.0002 30.5C25.8002 30.5 27.3335 29.8667 28.6002 28.6C29.8669 27.3333 30.5002 25.8 30.5002 24C30.5002 22.2 29.8669 20.6667 28.6002 19.4C27.3335 18.1333 25.8002 17.5 24.0002 17.5C22.2002 17.5 20.6669 18.1333 19.4002 19.4C18.1335 20.6667 17.5002 22.2 17.5002 24C17.5002 25.8 18.1335 27.3333 19.4002 28.6C20.6669 29.8667 22.2002 30.5 24.0002 30.5ZM24.0002 27.5C23.0335 27.5 22.2085 27.1583 21.5252 26.475C20.8419 25.7917 20.5002 24.9667 20.5002 24C20.5002 23.0333 20.8419 22.2083 21.5252 21.525C22.2085 20.8417 23.0335 20.5 24.0002 20.5C24.9669 20.5 25.7919 20.8417 26.4752 21.525C27.1585 22.2083 27.5002 23.0333 27.5002 24C27.5002 24.9667 27.1585 25.7917 26.4752 26.475C25.7919 27.1583 24.9669 27.5 24.0002 27.5ZM21.8002 41H26.2002L26.9002 35.4C28.0002 35.1333 29.0419 34.7167 30.0252 34.15C31.0085 33.5833 31.9002 32.9 32.7002 32.1L38.0002 34.4L40.0002 30.8L35.3002 27.35C35.4335 26.7833 35.5419 26.225 35.6252 25.675C35.7085 25.125 35.7502 24.5667 35.7502 24C35.7502 23.4333 35.7169 22.875 35.6502 22.325C35.5835 21.775 35.4669 21.2167 35.3002 20.65L40.0002 17.2L38.0002 13.6L32.7002 15.9C31.9335 15.0333 31.0669 14.3083 30.1002 13.725C29.1335 13.1417 28.0669 12.7667 26.9002 12.6L26.2002 7H21.8002L21.1002 12.6C19.9669 12.8333 18.9085 13.2333 17.9252 13.8C16.9419 14.3667 16.0669 15.0667 15.3002 15.9L10.0002 13.6L8.0002 17.2L12.7002 20.65C12.5669 21.2167 12.4585 21.775 12.3752 22.325C12.2919 22.875 12.2502 23.4333 12.2502 24C12.2502 24.5667 12.2919 25.125 12.3752 25.675C12.4585 26.225 12.5669 26.7833 12.7002 27.35L8.0002 30.8L10.0002 34.4L15.3002 32.1C16.1002 32.9 16.9919 33.5833 17.9752 34.15C18.9585 34.7167 20.0002 35.1333 21.1002 35.4L21.8002 41Z" /></svg>
