<svg viewBox="0 0 48 48" xmlns="http://www.w3.org/2000/svg"><path d="M5.1001 35.85C4.76676 35.5167 4.6001 35.1333 4.6001 34.7C4.6001 34.2667 4.76676 33.8833 5.1001 33.55L17.9001 20.75C18.2001 20.45 18.5501 20.3 18.9501 20.3C19.3501 20.3 19.7001 20.45 20.0001 20.75L26.9501 27.75L40.8501 12.15C41.1168 11.85 41.4584 11.6833 41.8751 11.65C42.2918 11.6167 42.6501 11.75 42.9501 12.05C43.2168 12.3167 43.3584 12.65 43.3751 13.05C43.3918 13.45 43.2668 13.8 43.0001 14.1L28.0001 31.05C27.7334 31.3833 27.3751 31.5583 26.9251 31.575C26.4751 31.5917 26.1001 31.45 25.8001 31.15L18.9501 24.3L7.4001 35.85C7.06676 36.1833 6.68343 36.35 6.2501 36.35C5.81676 36.35 5.43343 36.1833 5.1001 35.85Z"/></svg>
