<svg viewBox="0 0 28 28" xmlns="http://www.w3.org/2000/svg"><path d="M25.2609 14.9131H27.0869C27.5913 14.9131 28 14.5044 28 14C28 13.4956 27.5913 13.0869 27.0869 13.0869H25.2609C24.7565 13.0869 24.3478 13.4956 24.3478 14C24.3478 14.5044 24.7565 14.9131 25.2609 14.9131Z" fill="#F9A926"/><path d="M0.91306 14.9131H2.73913C3.24351 14.9131 3.65219 14.5044 3.65219 14C3.65219 13.4956 3.24351 13.0869 2.73913 13.0869H0.91306C0.409005 13.0869 -3.09944e-06 13.4956 -3.09944e-06 14C-3.09944e-06 14.5044 0.409005 14.9131 0.91306 14.9131Z" fill="#F9A926"/><path d="M25.3328 21.4568C25.6485 21.4568 25.9552 21.2931 26.1243 21C26.3767 20.5634 26.2269 20.0049 25.7903 19.7529L24.2088 18.8398C23.7715 18.5875 23.2134 18.737 22.9617 19.1739C22.7093 19.6105 22.8591 20.169 23.2957 20.421L24.8772 21.334C25.021 21.4173 25.1779 21.4568 25.3328 21.4568Z" fill="#F9A926"/><path d="M4.24691 9.28293C4.56257 9.28293 4.86931 9.11919 5.03841 8.82612C5.29079 8.3895 5.14095 7.83103 4.70438 7.57903L3.12292 6.66597C2.68537 6.41337 2.1275 6.5637 1.87583 7C1.62345 7.43662 1.77329 7.99509 2.20986 8.24709L3.79131 9.16016C3.93509 9.24334 4.09209 9.28293 4.24691 9.28293Z" fill="#F9A926"/><path d="M20.5444 26.247C20.6993 26.247 20.8562 26.2075 21 26.1242C21.4366 25.8722 21.5864 25.3138 21.334 24.8771L20.421 23.2957C20.1689 22.8596 19.6102 22.7089 19.1739 22.9616C18.7372 23.2137 18.5874 23.7721 18.8398 24.2087L19.7529 25.7902C19.922 26.083 20.2287 26.247 20.5444 26.247Z" fill="#F9A926"/><path d="M8.36482 5.16113C8.5197 5.16113 8.67659 5.12165 8.82042 5.03836C9.25705 4.7863 9.40684 4.22789 9.15445 3.79126L8.24139 2.20981C7.98906 1.77379 7.43065 1.62367 6.99435 1.87578C6.55773 2.12783 6.40794 2.68625 6.66032 3.12287L7.57339 4.70433C7.74242 4.99707 8.04917 5.16113 8.36482 5.16113Z" fill="#F9A926"/><path d="M7.45559 26.247C7.77124 26.247 8.07799 26.0833 8.24708 25.7902L9.16014 24.2087C9.41253 23.7721 9.26268 23.2136 8.82611 22.9616C8.38801 22.709 7.83069 22.8588 7.57902 23.2957L6.66596 24.8771C6.41357 25.3137 6.56342 25.8722 6.99999 26.1242C7.14381 26.2075 7.30077 26.247 7.45559 26.247Z" fill="#F9A926"/><path d="M19.6295 5.16114C19.9452 5.16114 20.2519 4.9974 20.421 4.70433L21.3341 3.12288C21.5864 2.68625 21.4366 2.12778 21 1.87578C20.5622 1.62373 20.0046 1.77324 19.7529 2.20981L18.8398 3.79127C18.5875 4.22789 18.7373 4.78636 19.1739 5.03836C19.3178 5.12165 19.4747 5.16114 19.6295 5.16114Z" fill="#F9A926"/><path d="M2.66716 21.4568C2.82203 21.4568 2.97893 21.4173 3.12276 21.334L4.70421 20.421C5.14084 20.1689 5.29063 19.6105 5.03824 19.1739C4.78619 18.7379 4.22778 18.5875 3.79115 18.8398L2.2097 19.7529C1.77307 20.005 1.62328 20.5634 1.87567 21C2.04487 21.2928 2.35156 21.4568 2.66716 21.4568Z" fill="#F9A926"/><path d="M23.7531 9.28293C23.9079 9.28293 24.0648 9.24345 24.2087 9.16016L25.7901 8.2471C26.2267 7.99504 26.3765 7.43663 26.1242 7C25.8718 6.56371 25.3139 6.41326 24.8771 6.66597L23.2956 7.57903C22.859 7.83109 22.7092 8.3895 22.9616 8.82613C23.1307 9.11887 23.4375 9.28293 23.7531 9.28293Z" fill="#F9A926"/><path d="M14 22.5217C18.699 22.5217 22.5217 18.699 22.5217 14C22.5217 9.30103 18.699 5.47826 14 5.47826C9.30103 5.47826 5.47826 9.30103 5.47826 14C5.47826 18.699 9.30103 22.5217 14 22.5217Z" fill="#F9A926"/><path d="M5.47827 14C5.47827 9.30103 9.30103 5.47826 14 5.47826V22.5217C9.30103 22.5217 5.47827 18.699 5.47827 14Z" fill="#F9A926"/><path d="M14 3.6522C14.5044 3.6522 14.9131 3.24352 14.9131 2.73913V0.913062C14.9131 0.40868 14.5044 0 14 0C13.4956 0 13.0869 0.40868 13.0869 0.913062V2.73913C13.0869 3.24352 13.4956 3.6522 14 3.6522Z" fill="#F9A926"/><path d="M13.0869 2.73913V0.913062C13.0869 0.40868 13.4956 0 14 0V3.6522C13.4956 3.6522 13.0869 3.24352 13.0869 2.73913Z" fill="#F9A926"/><path d="M14 28C14.5044 28 14.9131 27.5913 14.9131 27.0869V25.2609C14.9131 24.7565 14.5044 24.3478 14 24.3478C13.4956 24.3478 13.0869 24.7565 13.0869 25.2609V27.0869C13.0869 27.5913 13.4956 28 14 28Z" fill="#F9A926"/><path d="M13.0869 27.0869V25.2609C13.0869 24.7565 13.4956 24.3478 14 24.3478V28C13.4956 28 13.0869 27.5913 13.0869 27.0869Z" fill="#F9A926"/></svg>
