<svg viewBox="0 0 28 28" xmlns="http://www.w3.org/2000/svg"><path d="M19.2451 8.65614L12.3613 8.32834C12.2347 8.32233 12.1111 8.36837 12.0194 8.45587C11.9281 8.54272 11.8756 8.66462 11.8756 8.79138V10.1026C11.8756 10.3332 12.0453 10.5289 12.2736 10.5614L21.4521 11.8726C21.5993 11.8937 21.7443 11.8427 21.8455 11.7415C21.8802 11.7069 21.9096 11.6665 21.9323 11.621C22.0216 11.4425 21.9866 11.227 21.8455 11.0859L19.5509 8.79127C19.4694 8.7099 19.3603 8.66166 19.2451 8.65614Z" fill="#E8E6D9"/><path d="M23.7327 5.5604C23.0204 5.5604 22.3082 5.28926 21.7659 4.74698C20.6815 3.66247 20.6815 1.89787 21.7659 0.813369C22.8505 -0.271136 24.615 -0.271191 25.6996 0.813369C26.7841 1.89787 26.7841 3.66247 25.6996 4.74698C25.1573 5.28926 24.445 5.5604 23.7327 5.5604ZM22.4216 4.09144C23.1446 4.81446 24.321 4.81441 25.044 4.09144C25.767 3.36842 25.767 2.19204 25.044 1.46902C24.3209 0.74594 23.1445 0.745994 22.4216 1.46902C21.6986 2.19204 21.6986 3.36842 22.4216 4.09144Z" fill="#11BBA3"/><path d="M22.1602 3.02262L20.4157 1.47196C20.2437 1.31911 19.9823 1.32682 19.8196 1.48946L15.2304 6.07872C15.0677 6.24141 15.06 6.50276 15.2129 6.67476L16.7635 8.41928L19.7903 5.79812L22.1602 3.02262Z" fill="#72CCC5"/><path d="M26.3162 6.71677L24.2428 4.87375L21.2202 7.54862L18.6147 10.5017L20.4578 12.5752C20.6214 12.7592 20.9156 12.768 21.0899 12.5937L26.3348 7.34885C26.5091 7.17461 26.5003 6.88045 26.3162 6.71677Z" fill="#72CCC5"/><path d="M16.8008 6.99567C16.3797 6.57452 15.991 6.13314 15.634 5.67508L15.2305 6.07862C15.0678 6.24131 15.0601 6.50266 15.213 6.67466L20.4578 12.575C20.6215 12.7591 20.9157 12.7679 21.09 12.5936L23.0487 10.6349C20.7603 10.0064 18.5989 8.79374 16.8008 6.99567Z" fill="#11BBA3"/><path d="M22.1602 3.02261L16.7636 8.41928L18.6147 10.5018L24.2428 4.87373L22.1602 3.02261Z" fill="#E8E6D9"/><path d="M10.9156 7.15808C10.6789 7.15814 10.481 7.35605 10.4809 7.59274V11.3014C10.4809 11.5414 10.6755 11.736 10.9155 11.736C11.5034 11.736 12.082 11.5027 12.503 11.0958C12.5124 11.0868 12.5214 11.0779 12.5306 11.0686C13.1868 10.4124 13.3856 9.40754 13.0241 8.5554C12.6695 7.71972 11.8221 7.15814 10.9156 7.15808Z" fill="#72CCC5"/><path d="M17.5183 7.66455L16.7635 8.41935L18.6147 10.5019L19.8187 9.29785C19.012 8.83891 18.2409 8.29455 17.5183 7.66455Z" fill="#DDDAC5"/><path d="M10.481 10.9709V11.3014C10.481 11.5414 10.6755 11.736 10.9156 11.736C11.5034 11.736 12.082 11.5027 12.5031 11.0958C12.5124 11.0868 12.5215 11.0779 12.5306 11.0686C12.8006 10.7986 12.993 10.4696 13.101 10.1165C12.3415 10.7297 11.4051 11.0147 10.481 10.9709Z" fill="#11BBA3"/><path d="M8.13583 14.2869C7.7855 14.2869 7.57982 13.8763 7.78555 13.5955C8.07195 13.2045 8.39187 12.8329 8.73629 12.491C8.90664 12.322 9.18183 12.323 9.35087 12.4934C9.51996 12.6637 9.51887 12.9389 9.34857 13.108C9.03625 13.4179 8.7463 13.7546 8.48675 14.109C8.40166 14.2253 8.26965 14.2869 8.13583 14.2869Z" fill="#198A82"/><path d="M6.1311 14.178C5.80084 14.178 5.59052 13.808 5.75611 13.5242C5.99848 13.1089 6.27105 12.7056 6.56614 12.3253C6.71325 12.1356 6.98636 12.1013 7.1759 12.2484C7.36551 12.3955 7.3999 12.6685 7.25274 12.8581C6.98094 13.2084 6.72993 13.58 6.50669 13.9623C6.42603 14.1008 6.28056 14.178 6.1311 14.178ZM7.8315 11.9868C7.45027 11.9868 7.25591 11.5102 7.52596 11.2431C7.86781 10.9051 8.23542 10.5863 8.61861 10.2958C8.81002 10.1507 9.08247 10.1883 9.2275 10.3795C9.37248 10.5708 9.33502 10.8434 9.14378 10.9884C8.79071 11.256 8.45198 11.5496 8.13709 11.8611C8.05243 11.945 7.94191 11.9868 7.8315 11.9868Z" fill="#198A82"/><path d="M3.9423 14.105C3.62762 14.105 3.41533 13.7661 3.5503 13.4832C3.75592 13.0522 3.98829 12.6276 4.24078 12.2214C4.36754 12.0175 4.63557 11.9551 4.83933 12.0818C5.04321 12.2086 5.10572 12.4765 4.97895 12.6804C4.74336 13.0593 4.52663 13.4553 4.33484 13.8574C4.2603 14.0137 4.10461 14.105 3.9423 14.105ZM5.40792 11.7478C5.05086 11.7478 4.84715 11.323 5.06678 11.0442C5.36209 10.6693 5.68185 10.3064 6.01735 9.96557C6.18568 9.7944 6.46087 9.79237 6.63193 9.96076C6.80294 10.1291 6.80513 10.4043 6.63674 10.5753C6.32366 10.8934 6.02512 11.2321 5.7495 11.5821C5.66386 11.691 5.53654 11.7478 5.40792 11.7478ZM7.35561 9.77012C7.16595 9.77012 6.99369 9.64242 6.93906 9.46069C6.88891 9.29379 6.94589 9.10829 7.08113 8.99831C7.4518 8.69682 7.84337 8.41294 8.24477 8.15443C8.44662 8.02455 8.71552 8.08274 8.84546 8.28453C8.9754 8.48633 8.91715 8.75528 8.71536 8.88522C8.3408 9.12645 7.97544 9.39141 7.62948 9.67266C7.54893 9.73829 7.45191 9.77012 7.35561 9.77012Z" fill="#198A82"/><path d="M4.23324 14.7544C4.07311 14.5344 3.74116 14.5172 3.55894 14.7192C3.25362 15.0578 1.72801 16.7978 1.67578 17.7959C1.64696 18.3447 1.83361 18.8717 2.20127 19.28C2.56899 19.6884 3.0737 19.9291 3.62238 19.9578C3.65924 19.9598 3.69599 19.9608 3.73252 19.9608C4.24128 19.9608 4.72559 19.7753 5.10649 19.4323C5.51484 19.0646 5.75557 18.56 5.78428 18.0112C5.83673 17.0131 4.50143 15.1232 4.23324 14.7544Z" fill="#66BF00"/><path d="M4.16718 19.4361C4.13054 19.4361 4.09384 19.4351 4.05704 19.4331C3.50825 19.4043 3.00359 19.1637 2.63593 18.7553C2.26827 18.347 2.08167 17.8199 2.11044 17.2712C2.14538 16.6046 2.83696 15.6078 3.38378 14.9178C2.88186 15.4979 1.72134 16.9275 1.67578 17.7959C1.64696 18.3447 1.83361 18.8717 2.20127 19.2801C2.56899 19.6884 3.0737 19.9292 3.62238 19.9579C3.65924 19.9599 3.69599 19.9608 3.73252 19.9608C4.24128 19.9608 4.72559 19.7753 5.10649 19.4323C5.26924 19.2858 5.40492 19.1172 5.51161 18.9329C5.13531 19.2594 4.66308 19.4361 4.16718 19.4361Z" fill="#58AB23"/><path d="M9.18709 17.1581C9.08099 16.908 8.76123 16.8158 8.53816 16.9716C8.16438 17.2327 6.2857 18.5837 6.00969 19.5443C5.69639 20.6345 6.32841 21.7763 7.41855 22.0897C7.60771 22.1441 7.7983 22.17 7.98588 22.17C8.87991 22.17 9.70492 21.5819 9.96387 20.6808C10.24 19.7201 9.36526 17.5778 9.18709 17.1581Z" fill="#66BF00"/><path d="M8.61249 21.6062C8.42491 21.6062 8.23433 21.5803 8.04516 21.5259C6.95497 21.2126 6.32289 20.0708 6.63631 18.9805C6.74574 18.5997 7.10728 18.1576 7.52678 17.7463C6.88809 18.2801 6.17201 18.9796 6.00975 19.5444C5.69645 20.6346 6.32847 21.7764 7.41861 22.0898C7.60777 22.1441 7.79836 22.1701 7.98594 22.1701C8.64328 22.1701 9.263 21.8519 9.64816 21.3254C9.33781 21.5059 8.98108 21.6062 8.61249 21.6062Z" fill="#58AB23"/><path d="M8.65265 19.1526C8.64232 18.9127 8.43975 18.7278 8.19979 18.737C7.95998 18.7473 7.77394 18.9501 7.78422 19.1899C7.78526 19.2131 7.84842 21.4187 5.30671 22.5432C5.16097 22.0677 4.9974 21.6279 4.84154 21.2089C4.37211 19.9471 3.96676 18.8572 4.14663 17.3306C4.17474 17.0922 4.00428 16.8762 3.7659 16.8481C3.52713 16.8203 3.31145 16.9905 3.28345 17.2289C3.07908 18.9637 3.53944 20.2015 4.02692 21.512C4.43943 22.6211 4.86604 23.7679 4.89979 25.3261C4.90487 25.5629 5.09841 25.7513 5.33411 25.7513C5.33729 25.7513 5.34051 25.7513 5.34368 25.7512C5.58371 25.7461 5.77402 25.5473 5.76877 25.3073C5.75346 24.6009 5.66267 23.9698 5.53268 23.3921C7.14695 22.7175 7.9094 21.6612 8.26651 20.8716C8.6818 19.9531 8.65408 19.1848 8.65265 19.1526Z" fill="#508913"/><path d="M5.38157 24.7742C3.63814 24.7742 2.14545 25.8439 1.52185 27.3626C1.39705 27.6666 1.62335 28 1.95202 28H8.81124C9.13985 28 9.36621 27.6666 9.24141 27.3626C8.6177 25.8439 7.12495 24.7742 5.38157 24.7742Z" fill="#B9873C"/></svg>
