<svg viewBox="0 0 28 28" xmlns="http://www.w3.org/2000/svg"><path d="M6.0563 15.1318C5.45335 15.1301 4.87545 14.8904 4.44827 14.4649C4.0211 14.0393 3.7792 13.4624 3.77518 12.8594C3.77657 12.2541 4.01668 11.6736 4.44338 11.2442C4.69984 10.9925 5.01118 10.8036 5.35295 10.6925L5.69145 10.6033L9.28075 9.64099L8.30967 13.228L8.19914 13.6442C8.08766 13.9544 7.90727 14.2354 7.67153 14.4659C7.46006 14.6782 7.20868 14.8466 6.93186 14.9613C6.65505 15.0761 6.35826 15.135 6.0586 15.1345L6.0563 15.1318Z" fill="#27B7FF"/><path d="M23.7272 24.5573C23.1293 24.5566 22.545 24.379 22.0479 24.0467C21.5508 23.7144 21.1632 23.2424 20.934 22.6902C20.7048 22.138 20.6442 21.5303 20.7598 20.9436C20.8755 20.357 21.1622 19.8178 21.5839 19.3939C21.9246 19.0629 22.3356 18.813 22.7862 18.6628L23.195 18.5569L27.9981 17.2682L26.7034 22.0621L26.579 22.5314C26.3728 23.124 25.987 23.6376 25.4753 24.0007C24.9636 24.3638 24.3514 24.5584 23.724 24.5573H23.7272Z" fill="#27B7FF"/><path d="M3.50699 26.7325C2.66978 26.7366 1.85873 26.441 1.22053 25.8991C0.582322 25.3573 0.159077 24.6049 0.0273493 23.7781C-0.104378 22.9513 0.0641132 22.1047 0.502329 21.3913C0.940545 20.678 1.61957 20.145 2.4166 19.8887L2.89011 19.7629L8.47291 18.2665L6.96866 23.8345L6.82207 24.3723C6.64528 24.8708 6.36113 25.3243 5.98972 25.7009C5.66466 26.029 5.2776 26.2891 4.85105 26.4663C4.4245 26.6434 3.96698 26.7339 3.50512 26.7325H3.50699Z" fill="#27B7FF"/><path d="M14.1611 22.2452C13.9533 22.2472 13.7472 22.2072 13.5552 22.1278C13.3632 22.0483 13.1891 21.931 13.0435 21.7828C12.8966 21.6376 12.7799 21.4648 12.7001 21.2743C12.6202 21.0838 12.5788 20.8795 12.5783 20.673C12.5772 20.3389 12.6825 20.0132 12.879 19.7431C13.0755 19.473 13.3528 19.2724 13.671 19.1706L13.9063 19.109L16.3914 18.4353L15.7199 20.9236L15.6436 21.2126C15.5672 21.4289 15.4414 21.6243 15.276 21.7832C15.13 21.9302 14.9563 22.0468 14.7649 22.1262C14.5735 22.2056 14.3683 22.2457 14.1611 22.2452Z" fill="#27B7FF"/><path d="M17.8416 13.7491C16.8173 13.7492 15.816 13.4456 14.9641 12.8769C14.1122 12.3081 13.448 11.4997 13.0554 10.5536C12.6627 9.60758 12.5593 8.56639 12.758 7.56158C12.9568 6.55676 13.449 5.6334 14.1723 4.90813C14.753 4.33871 15.4576 3.91139 16.231 3.6596L16.9315 3.47463L25.1561 1.26796L22.9425 9.47962L22.7284 10.2851C22.3761 11.2997 21.7158 12.1789 20.8398 12.8001C19.9637 13.4212 18.9155 13.7533 17.8416 13.7501V13.7491Z" fill="#27B7FF"/></svg>
