<svg viewBox="0 0 28 28" xmlns="http://www.w3.org/2000/svg"><path d="M2.89658 26.069H25.1035V1.93102H2.89658V26.069Z" fill="#6C4126"/><path d="M4.82761 13.0345H13.0345V3.86208H4.82761V13.0345Z" fill="#7383BF"/><path d="M14.9655 13.0345H23.1724V3.86208H14.9655V13.0345Z" fill="#7383BF"/><path d="M4.82761 24.1379H13.0345V14.9655H4.82761V24.1379Z" fill="#7383BF"/><path d="M14.9655 24.1379H23.1724V14.9655H14.9655V24.1379Z" fill="#7383BF"/><path d="M6.75862 3.86208H4.82761V13.0345H6.75862C8.35172 13.0345 9.6552 6.03449 9.6552 3.86208H6.75862Z" fill="#DD342E"/><path d="M4.82761 24.1379V14.9655H6.2759C7.4345 15.6414 8.20691 19.5034 8.20691 24.1379H4.82761Z" fill="#DD342E"/><path d="M21.2414 3.86208H23.1724V13.0345H21.2414C19.6483 13.0345 18.3448 6.03449 18.3448 3.86208H21.2414Z" fill="#DD342E"/><path d="M23.1724 24.1379V14.9655H21.7241C20.5655 15.6414 19.7931 19.5034 19.7931 24.1379H23.1724Z" fill="#DD342E"/><path d="M26.069 26.069H1.93103V27.0345C1.93103 27.5655 2.36552 28 2.89654 28H25.1034C25.6345 28 26.0689 27.5655 26.0689 27.0345V26.069H26.069Z" fill="#BFA380"/><path d="M25.1034 0H2.89659C2.36552 0 1.93103 0.434492 1.93103 0.965508C1.93103 1.49652 2.36552 1.93102 2.89659 1.93102H25.1035C25.6345 1.93102 26.069 1.49652 26.069 0.965508C26.069 0.434492 25.6345 0 25.1034 0Z" fill="#BFA380"/><path d="M1.93102 27.0345H0.965508C0.675829 27.0345 0.482727 26.8414 0.482727 26.5517C0.482727 26.262 0.675829 26.0689 0.965508 26.0689H1.93102C2.2207 26.0689 2.4138 26.262 2.4138 26.5517C2.4138 26.8414 2.2207 27.0345 1.93102 27.0345Z" fill="#BFA380"/><path d="M27.0345 27.0345H26.069C25.7793 27.0345 25.5862 26.8414 25.5862 26.5517C25.5862 26.262 25.7793 26.0689 26.069 26.0689H27.0345C27.3242 26.0689 27.5173 26.262 27.5173 26.5517C27.5173 26.8414 27.3241 27.0345 27.0345 27.0345Z" fill="#BFA380"/></svg>
