<svg viewBox="0 0 704 494" fill="none" xmlns="http://www.w3.org/2000/svg"><g clip-path="url(#clip0_84_22013)"><path d="M423.796 493.953H0V3.07721L423.796 134.886V493.953Z" fill="#0D0D0D66"/><path d="M372.433 320.48H39.4504V475.772H372.433V320.48Z" fill="#3F3D56"/><path d="M300.319 291.428C325.892 291.428 346.623 270.676 346.623 245.078C346.623 219.48 325.892 198.728 300.319 198.728C274.746 198.728 254.015 219.48 254.015 245.078C254.015 270.676 274.746 291.428 300.319 291.428Z" fill="#596E44"/><path d="M299.9 328.899L300.279 244.823" stroke="#3F3D56" stroke-width="2" stroke-miterlimit="10"/><path d="M300.279 256.713C306.839 256.713 312.157 251.389 312.157 244.823C312.157 238.257 306.839 232.933 300.279 232.933C293.719 232.933 288.401 238.257 288.401 244.823C288.401 251.389 293.719 256.713 300.279 256.713Z" fill="#3F3D56"/><path d="M300.045 296.641C300.045 296.641 298.513 260.102 263.709 264.191Z" fill="#3F3D56"/><path d="M106.345 198.372C131.918 198.372 152.649 177.62 152.649 152.022C152.649 126.424 131.918 105.672 106.345 105.672C80.7722 105.672 60.0411 126.424 60.0411 152.022C60.0411 177.62 80.7722 198.372 106.345 198.372Z" fill="#596E44"/><path d="M103.723 323.133L106.388 151.971" stroke="#3F3D56" stroke-width="2" stroke-miterlimit="10"/><path d="M106.388 163.86C112.948 163.86 118.266 158.537 118.266 151.971C118.266 145.404 112.948 140.081 106.388 140.081C99.8283 140.081 94.5104 145.404 94.5104 151.971C94.5104 158.537 99.8283 163.86 106.388 163.86Z" fill="#3F3D56"/><path d="M105.634 200.386C105.634 200.386 104.506 163.832 69.6593 167.536Z" fill="#3F3D56"/><path d="M103.774 319.865C103.774 319.865 112.503 249.743 68.443 245.658" stroke="#3F3D56" stroke-width="2" stroke-miterlimit="10"/><path d="M68.443 257.548C75.003 257.548 80.3209 252.224 80.3209 245.658C80.3209 239.091 75.003 233.768 68.443 233.768C61.883 233.768 56.5651 239.091 56.5651 245.658C56.5651 252.224 61.883 257.548 68.443 257.548Z" fill="#3F3D56"/><path d="M205.922 95.4732C231.495 95.4732 252.226 74.7217 252.226 49.1235C252.226 23.5253 231.495 2.77383 205.922 2.77383C180.349 2.77383 159.618 23.5253 159.618 49.1235C159.618 74.7217 180.349 95.4732 205.922 95.4732Z" fill="#596E44"/><path d="M205.951 329.734V49.2938" stroke="#3F3D56" stroke-width="2" stroke-miterlimit="10"/><path d="M205.951 61.0505C212.511 61.0505 217.829 55.7274 217.829 49.1609C217.829 42.5945 212.511 37.2713 205.951 37.2713C199.391 37.2713 194.073 42.5945 194.073 49.1609C194.073 55.7274 199.391 61.0505 205.951 61.0505Z" fill="#3F3D56"/><path d="M169.469 263.95C176.029 263.95 181.347 258.627 181.347 252.061C181.347 245.494 176.029 240.171 169.469 240.171C162.909 240.171 157.591 245.494 157.591 252.061C157.591 258.627 162.909 263.95 169.469 263.95Z" fill="#3F3D56"/><path d="M205.951 109.894C205.951 109.894 204.254 73.3622 169.469 77.6085Z" fill="#3F3D56"/><path d="M205.951 213.456C205.951 213.456 204.254 176.925 169.469 181.171Z" fill="#3F3D56"/><path d="M205.951 326.465C205.951 326.465 213.587 255.458 169.469 252.061" stroke="#3F3D56" stroke-width="2" stroke-miterlimit="10"/><path d="M243.162 152.421C249.722 152.421 255.04 147.098 255.04 140.532C255.04 133.965 249.722 128.642 243.162 128.642C236.602 128.642 231.284 133.965 231.284 140.532C231.284 147.098 236.602 152.421 243.162 152.421Z" fill="#3F3D56"/><path d="M206.679 211.149C206.679 211.149 199.044 143.929 243.162 140.532" stroke="#3F3D56" stroke-width="2" stroke-miterlimit="10"/><path d="M304.982 113.676C301.689 113.676 298.47 112.698 295.732 110.867C292.994 109.036 290.86 106.433 289.6 103.388C288.34 100.343 288.01 96.9917 288.653 93.7589C289.295 90.5261 290.881 87.5566 293.209 85.2259C295.538 82.8952 298.504 81.3079 301.734 80.6649C304.963 80.0219 308.311 80.3519 311.353 81.6133C314.395 82.8746 316.996 85.0107 318.825 87.7513C320.655 90.492 321.631 93.7141 321.631 97.0102C321.626 101.429 319.87 105.665 316.749 108.789C313.628 111.913 309.396 113.671 304.982 113.676ZM304.982 81.8597C301.988 81.8597 299.062 82.7483 296.573 84.413C294.084 86.0778 292.144 88.444 290.998 91.2124C289.853 93.9807 289.553 97.027 290.137 99.9659C290.721 102.905 292.163 105.604 294.279 107.723C296.396 109.842 299.093 111.285 302.029 111.87C304.965 112.454 308.008 112.154 310.774 111.007C313.54 109.861 315.904 107.919 317.567 105.427C319.23 102.936 320.117 100.007 320.117 97.0102C320.113 92.9935 318.517 89.1425 315.679 86.3023C312.842 83.462 308.995 81.8643 304.982 81.8597Z" fill="#3F3D56"/><path d="M43.1365 33.3782C39.8436 33.3782 36.6246 32.4008 33.8867 30.5695C31.1488 28.7383 29.0148 26.1355 27.7546 23.0903C26.4945 20.0451 26.1648 16.6942 26.8072 13.4614C27.4496 10.2286 29.0353 7.25906 31.3637 4.92835C33.6922 2.59763 36.6587 1.01039 39.8884 0.367349C43.118 -0.275694 46.4656 0.0543422 49.5078 1.31572C52.55 2.57709 55.1503 4.71315 56.9797 7.45378C58.8091 10.1944 59.7856 13.4165 59.7856 16.7127C59.7806 21.1311 58.0249 25.3671 54.9037 28.4915C51.7824 31.6158 47.5505 33.3732 43.1365 33.3782ZM43.1365 1.56218C40.1429 1.56218 37.2166 2.45073 34.7276 4.11549C32.2385 5.78025 30.2986 8.14643 29.153 10.9148C28.0074 13.6832 27.7077 16.7295 28.2917 19.6684C28.8757 22.6073 30.3172 25.3068 32.434 27.4257C34.5507 29.5445 37.2476 30.9874 40.1836 31.572C43.1197 32.1566 46.1629 31.8566 48.9286 30.7099C51.6942 29.5632 54.0581 27.6213 55.7212 25.1298C57.3843 22.6383 58.272 19.7091 58.272 16.7127C58.2674 12.6959 56.6713 8.845 53.8338 6.00472C50.9964 3.16445 47.1492 1.56677 43.1365 1.56218Z" fill="#3F3D56"/><path d="M423.796 280.331C420.503 280.331 417.284 279.354 414.546 277.522C411.808 275.691 409.674 273.088 408.414 270.043C407.154 266.998 406.824 263.647 407.467 260.414C408.109 257.181 409.695 254.212 412.023 251.881C414.352 249.551 417.318 247.963 420.548 247.32C423.778 246.677 427.125 247.007 430.167 248.269C433.21 249.53 435.81 251.666 437.639 254.407C439.469 257.147 440.445 260.369 440.445 263.666C440.44 268.084 438.685 272.32 435.563 275.444C432.442 278.569 428.21 280.326 423.796 280.331ZM423.796 248.515C420.803 248.515 417.876 249.404 415.387 251.068C412.898 252.733 410.958 255.099 409.813 257.868C408.667 260.636 408.367 263.682 408.951 266.621C409.535 269.56 410.977 272.26 413.094 274.379C415.21 276.497 417.907 277.94 420.843 278.525C423.779 279.109 426.823 278.809 429.588 277.663C432.354 276.516 434.718 274.574 436.381 272.083C438.044 269.591 438.932 266.662 438.932 263.666C438.927 259.649 437.331 255.798 434.494 252.958C431.656 250.117 427.809 248.52 423.796 248.515Z" fill="#3F3D56"/><path d="M353.416 150.037C358.849 150.037 363.254 145.628 363.254 140.189C363.254 134.75 358.849 130.341 353.416 130.341C347.982 130.341 343.578 134.75 343.578 140.189C343.578 145.628 347.982 150.037 353.416 150.037Z" fill="#3F3D56"/><path d="M430.607 329.57C436.041 329.57 440.445 325.161 440.445 319.722C440.445 314.284 436.041 309.875 430.607 309.875C425.174 309.875 420.769 314.284 420.769 319.722C420.769 325.161 425.174 329.57 430.607 329.57Z" fill="#3F3D56"/><path d="M423.796 493.953V320.48H353.416C353.416 401.643 287.684 467.44 206.601 467.44C125.517 467.44 59.7855 401.643 59.7855 320.48H0V493.953H423.796Z" fill="#3F3D56"/><path d="M206.601 467.44C287.684 467.44 353.416 401.643 353.416 320.48H59.7855C59.7855 401.643 125.517 467.44 206.601 467.44Z" fill="#596E44"/><path d="M623.422 382.261C695.776 345.626 724.761 257.215 688.162 184.79L426.145 317.457C462.744 389.882 551.068 418.896 623.422 382.261Z" fill="#3F3D56"/><path d="M628.729 108.754C629.216 108.423 629.688 108.069 630.146 107.699C629.191 110.56 627.652 113.192 625.627 115.426C625.153 115.948 624.647 116.437 624.128 116.91C624.118 116.79 624.106 116.67 624.1 116.551C624.039 115.392 624.124 114.172 624.139 112.979C625.944 111.902 627.506 110.464 628.729 108.754Z" fill="url(#paint0_linear_84_22013)"/><path d="M635.829 66.4902C636.93 64.6321 637.565 62.5345 637.68 60.377C637.794 58.2195 637.384 56.0663 636.486 54.102C635.587 52.1376 634.226 50.4204 632.52 49.0976C630.813 47.7748 628.812 46.8856 626.687 46.5063C624.562 46.127 622.377 46.2688 620.319 46.9195C618.261 47.5703 616.391 48.7107 614.869 50.243C613.347 51.7754 612.219 53.654 611.582 55.7181C610.944 57.7822 610.816 59.9702 611.207 62.0949C607.389 63.9154 604.193 66.8256 602.022 70.4595C599.851 74.0934 598.803 78.2887 599.008 82.5177C597.184 85.3209 596.039 88.5118 595.663 91.8363C595.288 95.1608 595.693 98.527 596.847 101.667C598 104.807 599.87 107.634 602.308 109.923C604.745 112.213 607.683 113.9 610.887 114.853C614.091 115.805 617.473 115.996 620.764 115.409C624.054 114.823 627.162 113.475 629.841 111.474C632.52 109.474 634.695 106.874 636.193 103.884C637.691 100.893 638.471 97.5935 638.471 94.2479C638.471 93.9052 638.461 93.5649 638.445 93.2261C641.108 89.1351 642.3 84.2582 641.825 79.3985C641.349 74.5388 639.234 69.9861 635.829 66.4902Z" fill="#2F2E41"/><g opacity="0.1"><path d="M611.03 58.7011C611.09 58.6718 611.147 58.6381 611.207 58.6094C611.165 58.3779 611.135 58.1425 611.105 57.9076C611.098 57.9567 611.089 58.0049 611.083 58.0541C611.057 58.2708 611.046 58.4857 611.03 58.7011Z" fill="white"/><path d="M641.773 80.5828C641.382 83.8509 640.243 86.9847 638.445 89.7406C638.461 90.0793 638.471 90.4196 638.471 90.7623C638.472 96.3126 636.328 101.648 632.487 105.651C628.646 109.654 623.407 112.015 617.867 112.239C612.327 112.463 606.915 110.533 602.764 106.852C598.614 103.172 596.047 98.027 595.601 92.4947C595.554 93.0734 595.525 93.6571 595.525 94.2479C595.525 99.9485 597.788 105.416 601.814 109.447C605.841 113.477 611.303 115.742 616.998 115.742C622.693 115.742 628.155 113.477 632.182 109.447C636.209 105.416 638.471 99.9485 638.471 94.2479C638.471 93.9052 638.461 93.5649 638.445 93.2261C641.049 89.2322 642.247 84.4831 641.851 79.7306C641.828 80.0143 641.807 80.2977 641.773 80.5828Z" fill="white"/><path d="M637.591 57.893C637.359 59.6995 636.759 61.4393 635.829 63.0046C636.204 63.3906 636.559 63.7951 636.905 64.2077C637.637 62.1885 637.872 60.0225 637.591 57.893Z" fill="white"/></g><path d="M549.298 297.099C549.4 298.322 549.731 299.514 550.274 300.615C550.55 301.163 550.952 301.638 551.447 302C551.942 302.363 552.515 302.603 553.121 302.702C554.234 302.709 555.325 302.392 556.261 301.79C558.173 300.791 560.157 299.629 561.155 297.715C562.121 295.862 561.982 293.651 561.819 291.567L560.535 275.177C557.443 275.092 554.335 275.093 551.246 275.262C548.185 275.429 547.648 276.15 548.074 279.141C548.921 285.094 548.509 291.141 549.298 297.099Z" fill="#FBBEBE"/><path d="M640.03 308.176L647.389 320.077C647.705 320.769 648.28 321.31 648.989 321.583C649.517 321.659 650.056 321.566 650.527 321.316C652.981 320.242 654.859 318.203 656.662 316.22C657.885 314.875 659.149 313.456 659.608 311.696C659.845 310.741 659.835 309.742 659.578 308.792C659.32 307.843 658.825 306.975 658.138 306.272C657.278 305.523 656.349 304.859 655.363 304.287C649.546 300.36 646.921 292.899 641.178 288.863C640.847 288.587 640.443 288.413 640.015 288.362C639.588 288.387 639.176 288.525 638.82 288.763C636.203 290.199 633.586 291.635 630.97 293.07C627.57 294.932 628.648 295.15 631.229 297.155C635.032 300.109 637.407 304.238 640.03 308.176Z" fill="#FBBEBE"/><path d="M565.271 287.62C564.193 287.279 562.985 286.973 561.969 287.468C561.494 287.759 561.092 288.155 560.793 288.626C560.495 289.097 560.309 289.63 560.248 290.184C560.043 291.278 560.068 292.413 559.765 293.483C559.253 295.288 557.879 296.699 556.555 298.027C556.02 298.666 555.324 299.151 554.54 299.431C553.479 299.703 552.35 299.205 551.271 299.394C550.643 299.556 550.07 299.886 549.616 300.35C549.161 300.813 548.842 301.393 548.693 302.025C548.412 303.293 548.369 304.601 548.567 305.885L549.402 315.02C549.549 316.133 549.561 317.26 549.436 318.376C549.128 320.384 547.962 322.147 547.315 324.072C546.668 325.998 546.704 328.457 548.323 329.682C548.889 330.059 549.54 330.288 550.217 330.348C550.893 330.407 551.574 330.296 552.197 330.023C553.437 329.463 554.534 328.63 555.406 327.585C560.362 322.175 562.575 314.847 566.43 308.602C567.414 307.158 568.294 305.645 569.064 304.076C569.593 302.863 569.929 301.576 570.357 300.324C570.949 298.651 571.658 297.022 572.48 295.449C572.939 294.55 574.694 292.384 574.325 291.379C573.696 289.665 566.94 288.146 565.271 287.62Z" fill="#2F2E41"/><path d="M654.64 312.816C653.525 314.91 651.664 316.507 649.426 317.289C648.776 317.465 648.172 317.778 647.654 318.207C647.313 318.623 647.103 319.13 647.047 319.665C646.992 320.2 647.095 320.739 647.344 321.216C647.856 322.16 648.522 323.011 649.315 323.735C653.765 328.448 656.707 334.384 657.766 340.781C658.029 342.395 658.201 344.111 659.166 345.431C661.051 348.009 665.064 347.84 667.898 346.371C668.764 345.974 669.515 345.364 670.082 344.598C670.555 343.768 670.855 342.851 670.965 341.902C671.477 339.55 671.76 337.154 671.809 334.748C671.754 330.207 670.05 325.865 669.236 321.397C668.08 315.055 668.659 308.225 665.709 302.495C665.415 301.822 664.951 301.238 664.362 300.8C663.624 300.411 662.796 300.225 661.963 300.261C659.297 300.151 656.63 300.128 653.961 300.19C653.214 300.208 652.339 300.302 651.952 300.942C651.556 301.597 651.902 302.433 652.25 303.115C653.901 306.35 656.578 308.936 654.64 312.816Z" fill="#2F2E41"/><path d="M591.325 199.151C590.58 199.767 590.074 200.626 589.898 201.577C589.721 202.528 589.885 203.511 590.359 204.354C590.951 205.334 592.011 206.246 591.778 207.367C591.537 208.531 590.108 208.926 588.935 209.113C578.601 210.758 568.545 213.787 558.525 216.806L548.015 219.974C544.984 220.887 541.901 221.825 539.283 223.604C536.88 225.243 534.979 227.517 533.79 230.173C532.588 232.87 532.175 235.84 531.746 238.761C530.168 249.512 528.153 260.369 523.36 270.119L548.851 278.485C551.322 279.393 553.882 280.038 556.488 280.409C558.973 280.616 561.474 280.494 563.927 280.049C563.769 274.351 563.673 268.482 563.515 262.785C563.498 260.985 563.381 259.188 563.165 257.401C562.783 254.671 561.936 252.015 561.672 249.27C562.848 248.3 564.558 248.541 566.081 248.585C569.559 248.687 572.954 247.477 576.046 245.882C579.139 244.287 582.014 242.299 585.09 240.672C590.213 237.959 596.041 236.135 599.952 231.853C597.96 239.454 593.253 246.077 592.342 253.882C591.423 261.768 594.629 269.485 597.767 276.776L607.796 300.072C608.903 302.644 610.377 305.535 613.107 306.149C614.808 306.531 616.563 305.892 618.142 305.152C627.372 300.825 634.756 292.691 644.611 290.089C643.876 285.204 640.02 281.166 637.836 276.736C635.994 273 635.393 268.792 634.166 264.811C632.938 260.83 630.83 256.796 627.122 254.904C625.361 254.005 622.989 253.223 622.824 251.252C622.813 250.619 622.947 249.991 623.216 249.418C624.537 246.092 626.587 243.105 629.215 240.678C629.553 240.417 629.824 240.078 630.003 239.69C630.101 239.306 630.121 238.906 630.062 238.514C629.876 235.342 631.572 232.375 633.465 229.825C635.358 227.274 637.546 224.847 638.613 221.854C640.448 216.709 638.626 211.054 636.812 205.902C636.079 203.819 635.308 201.672 633.802 200.059C631.44 197.529 627.762 196.8 624.323 196.423C613.206 195.203 600.159 192.286 591.325 199.151Z" fill="#2F2E41"/><g opacity="0.1"><path d="M590.168 200.69C590.542 200.613 590.888 200.438 591.172 200.182C591.455 199.926 591.664 199.599 591.778 199.234C591.807 199.092 591.816 198.946 591.804 198.8C591.644 198.917 591.483 199.029 591.325 199.151C590.814 199.557 590.416 200.086 590.168 200.69Z" fill="white"/></g><path d="M608.893 118.513C609.026 121.054 608.259 123.775 606.307 125.405C605.681 125.929 604.954 126.325 604.352 126.875C603.816 127.426 603.407 128.087 603.152 128.811C602.898 129.536 602.804 130.308 602.878 131.072C602.951 131.837 603.19 132.577 603.578 133.24C603.966 133.902 604.494 134.473 605.124 134.911C607.151 136.149 609.729 135.815 612.068 135.409C615.188 134.972 618.246 134.173 621.182 133.028C624.134 131.867 626.646 129.807 628.365 127.139C625.818 125.717 624.43 122.731 624.276 119.816C624.121 116.897 624.92 113.584 623.073 111.32C621.295 109.139 617.948 109.155 615.237 109.903C613.876 110.279 612.559 110.799 611.196 111.167C610.505 111.353 608.225 111.358 607.773 111.867C606.953 112.792 608.816 117.042 608.893 118.513Z" fill="#FBBEBE"/><path opacity="0.1" d="M608.893 118.513C609.026 121.054 608.259 123.775 606.307 125.405C605.681 125.929 604.954 126.325 604.352 126.875C603.816 127.426 603.407 128.087 603.152 128.811C602.898 129.536 602.804 130.308 602.878 131.072C602.951 131.837 603.19 132.577 603.578 133.24C603.966 133.902 604.494 134.473 605.124 134.911C607.151 136.149 609.729 135.815 612.068 135.409C615.188 134.972 618.246 134.173 621.182 133.028C624.134 131.867 626.646 129.807 628.365 127.139C625.818 125.717 624.43 122.731 624.276 119.816C624.121 116.897 624.92 113.584 623.073 111.32C621.295 109.139 617.948 109.155 615.237 109.903C613.876 110.279 612.559 110.799 611.196 111.167C610.505 111.353 608.225 111.358 607.773 111.867C606.953 112.792 608.816 117.042 608.893 118.513Z" fill="white"/><path d="M616.708 118.356C625.042 118.356 631.797 111.594 631.797 103.252C631.797 94.9105 625.042 88.1482 616.708 88.1482C608.375 88.1482 601.619 94.9105 601.619 103.252C601.619 111.594 608.375 118.356 616.708 118.356Z" fill="#FBBEBE"/><path d="M569.061 219.133C568.79 220.326 568.309 221.462 567.64 222.486C565.881 225.615 565.245 229.253 565.839 232.794C566.157 234.55 566.902 236.2 568.009 237.6C569.115 238.999 570.548 240.105 572.182 240.819C573.594 241.376 575.344 241.523 576.509 240.548C574.493 237.923 574.386 234.34 574.507 231.031C574.472 230.413 574.619 229.799 574.93 229.264C575.012 229.137 575.12 229.028 575.247 228.944C575.373 228.861 575.516 228.804 575.665 228.777C575.814 228.75 575.968 228.755 576.115 228.79C576.263 228.825 576.402 228.89 576.523 228.981C576.472 231.064 576.874 233.134 577.702 235.046C578.021 235.782 578.566 236.594 579.367 236.573C580.516 236.543 580.826 234.985 580.783 233.836C580.605 229.151 580.376 224.272 578.12 220.164C577.294 218.66 576.193 217.248 575.879 215.561C575.865 214.976 575.662 214.412 575.303 213.95C575.054 213.755 574.763 213.619 574.454 213.554C573.155 213.187 570.08 212.043 569.008 213.261C567.859 214.567 569.269 217.571 569.061 219.133Z" fill="#FBBEBE"/><path d="M591.47 138.882C589.739 138.687 588.373 140.273 587.425 141.735C583.893 147.187 581.351 153.22 579.915 159.558C579.184 162.792 578.725 166.152 577.191 169.091C576.822 169.701 576.524 170.352 576.304 171.031C576.173 172.067 576.127 173.113 576.166 174.157C576.006 176.044 574.893 177.721 574.518 179.577C574.295 180.684 574.341 181.829 574.142 182.941C573.795 184.887 572.726 186.618 572.043 188.473C570.84 191.739 570.85 195.325 569.965 198.691C569.856 199.246 569.617 199.767 569.265 200.21C568.665 200.87 567.705 201.031 566.92 201.454C566.302 201.832 565.772 202.339 565.366 202.939C564.96 203.54 564.686 204.22 564.564 204.935C564.33 206.365 564.303 207.821 564.484 209.258L565.178 218.193C565.892 217.893 566.359 217.083 566.955 216.587C568.046 215.679 569.648 215.882 571.045 216.136L573.078 216.505C575.158 216.882 577.421 217.363 578.755 219.004C579.815 217.345 579.209 214.898 580.839 213.794C581.369 213.435 582.025 213.313 582.584 213.001C583.11 212.66 583.547 212.197 583.856 211.651C584.165 211.105 584.338 210.493 584.36 209.866C584.392 208.613 584.22 207.363 583.849 206.165C586.462 205.061 588.082 202.414 589.104 199.766C590.228 196.562 591.042 193.256 591.533 189.896C593.893 176.618 596.05 163.246 596.264 149.762C596.413 147.507 596.165 145.242 595.53 143.073C594.786 140.944 593.709 139.134 591.47 138.882Z" fill="#D0CDE1"/><path d="M629.511 124.423C627.021 127.037 623.837 128.888 620.334 129.758C616.849 130.616 613.291 131.141 609.707 131.325C608.605 131.51 607.474 131.412 606.42 131.041C605.407 130.581 604.637 129.38 605.049 128.346C605.249 128.026 605.384 127.67 605.446 127.298C605.428 126.378 604.076 126.302 603.198 126.574C597.389 128.372 591.818 131.934 589.138 137.396C587.623 140.482 587.123 143.952 586.643 147.356C585.381 156.31 584.121 165.458 585.814 174.34C586.716 179.077 588.453 183.693 588.561 188.514C588.622 191.215 588.166 193.906 588.188 196.608C588.107 197.554 588.36 198.499 588.903 199.278C589.321 199.764 589.951 200.07 590.242 200.641C590.73 201.596 590.078 202.907 590.72 203.765C591.51 204.822 593.16 204.063 594.249 203.318C599.724 199.596 606.337 197.929 612.92 198.612C620.829 199.462 628.687 203.681 636.357 201.572C635.962 200.996 635.621 200.384 635.339 199.745C631.514 187.165 631.773 173.104 637.497 161.268C639.452 157.225 642.047 153.372 642.796 148.942C643.098 146.871 643.122 144.768 642.867 142.69C642.464 138.669 641.508 134.615 639.324 131.215C637.141 127.816 633.529 124.821 629.511 124.423Z" fill="#D0CDE1"/><path d="M593.006 223.02C592.391 224.663 592.097 226.408 592.137 228.161C592.08 229.838 592.164 231.517 592.387 233.181C592.515 234.603 593.021 235.964 593.853 237.124C594.278 237.694 594.863 238.126 595.533 238.364C596.204 238.603 596.93 238.638 597.62 238.464C598.163 238.238 598.648 237.894 599.041 237.456C599.435 237.019 599.725 236.499 599.892 235.935C600.217 234.806 600.455 233.655 600.605 232.49C601.267 229.062 603.065 225.844 603.097 222.353C603.122 221.938 603.056 221.524 602.905 221.138C602.251 219.702 599.046 218.092 597.48 218.334C595.521 218.636 593.717 221.363 593.006 223.02Z" fill="#FBBEBE"/><path opacity="0.1" d="M636.55 137.174C636.252 140.177 639.154 142.441 640.301 145.232C640.77 146.535 641.037 147.902 641.093 149.285C641.899 158.888 641.273 168.546 640.647 178.162C640.532 181.363 640.136 184.548 639.461 187.679C637.842 194.25 633.857 199.946 629.953 205.471C628.611 207.687 626.559 209.381 624.131 210.278L610.733 216.774C609.054 217.516 607.459 218.435 605.974 219.514C604.25 220.866 602.895 222.632 602.035 224.648C599.435 223.318 596.736 222.125 594.137 220.795C593.529 220.484 592.849 220.078 592.744 219.402C592.603 218.496 593.549 217.855 594.201 217.21C595.42 216.003 595.796 214.213 596.456 212.629C598.612 207.453 604.035 204.14 605.991 198.885C606.743 196.866 606.973 194.584 608.306 192.891C609.068 192.043 609.926 191.285 610.862 190.633C612.927 188.878 614.825 186.934 616.529 184.826C617.294 184.031 617.921 183.113 618.382 182.109C618.968 180.618 618.792 178.955 618.823 177.353C618.923 172.108 621.292 167.217 622.742 162.176C624.108 157.429 624.678 152.449 626.47 147.846C628.262 143.242 631.772 138.412 636.55 137.174Z" fill="white"/><path d="M638.291 137.174C637.993 140.177 640.895 142.441 642.042 145.232C642.511 146.535 642.778 147.902 642.834 149.285C643.64 158.888 643.014 168.546 642.388 178.162C642.273 181.363 641.877 184.548 641.202 187.679C639.583 194.25 635.598 199.946 631.694 205.471C630.352 207.687 628.3 209.381 625.872 210.278L612.474 216.774C610.795 217.516 609.2 218.435 607.715 219.514C605.991 220.866 604.636 222.632 603.776 224.648C601.176 223.318 598.477 222.125 595.878 220.795C595.27 220.484 594.59 220.078 594.485 219.402C594.344 218.496 595.29 217.855 595.942 217.21C597.161 216.003 597.537 214.213 598.197 212.629C600.353 207.453 605.776 204.14 607.732 198.885C608.484 196.866 608.714 194.584 610.047 192.891C610.809 192.043 611.667 191.285 612.603 190.633C614.668 188.878 616.566 186.934 618.27 184.826C619.035 184.031 619.662 183.113 620.123 182.109C620.709 180.618 620.533 178.955 620.564 177.353C620.664 172.108 623.033 167.217 624.483 162.176C625.849 157.429 626.419 152.449 628.211 147.846C630.003 143.242 633.513 138.412 638.291 137.174Z" fill="#D0CDE1"/><path d="M624.191 79.9026C619.542 79.3338 614.835 80.3092 610.793 82.6791C611.389 82.7014 611.987 82.742 612.589 82.8149C617.054 83.3545 621.237 85.2842 624.548 88.3314C627.859 91.3787 630.13 95.3897 631.041 99.7984C631.953 104.207 631.458 108.791 629.626 112.903C627.795 117.015 624.72 120.448 620.835 122.716C626.371 122.919 631.77 120.972 635.904 117.282C640.039 113.593 642.59 108.447 643.023 102.92C643.456 97.3928 641.738 91.9117 638.229 87.6223C634.72 83.3329 629.69 80.567 624.191 79.9026Z" fill="#2F2E41"/><path d="M630.796 91.8516C631.318 93.0336 631.601 94.307 631.63 95.5988C631.66 96.8906 631.434 98.1755 630.966 99.3799C630.864 99.0685 630.747 98.7626 630.614 98.4633C627.96 92.5517 619.784 90.1047 612.352 92.9978C607.974 94.7022 604.833 97.8799 603.532 101.412C601.639 95.6973 605.483 89.1313 612.534 86.3861C619.966 83.493 628.142 85.94 630.796 91.8516Z" fill="#2F2E41"/><g opacity="0.1"><path d="M630.838 98.9109C630.495 94.7618 628.956 90.8016 626.409 87.5103C623.862 84.2189 620.416 81.7379 616.489 80.3679C614.489 80.8608 612.571 81.6391 610.793 82.6791C611.389 82.7014 611.987 82.7421 612.589 82.8149C616.9 83.3367 620.951 85.1542 624.209 88.0277C627.467 90.9013 629.778 94.6958 630.838 98.9109Z" fill="white"/><path d="M634.32 83.2259C633.977 79.0769 632.438 75.1166 629.891 71.8253C627.344 68.534 623.898 66.0529 619.971 64.683C617.971 65.1758 616.053 65.9542 614.275 66.9942C614.871 67.0165 615.469 67.0571 616.071 67.1299C620.382 67.6517 624.433 69.4693 627.691 72.3428C630.949 75.2163 633.26 79.0109 634.32 83.2259Z" fill="white"/><path d="M634.409 59.7985C634.202 57.2945 633.273 54.9044 631.736 52.9181C630.199 50.9317 628.119 49.4344 625.749 48.6076C624.542 48.905 623.384 49.3748 622.312 50.0024C622.671 50.0158 623.032 50.0404 623.395 50.0844C625.997 50.3993 628.442 51.4962 630.408 53.2304C632.374 54.9646 633.769 57.2546 634.409 59.7985Z" fill="white"/><path d="M642.44 95.9986C642.857 101.153 641.406 106.286 638.351 110.456C635.296 114.626 630.842 117.556 625.806 118.707C624.356 120.282 622.681 121.634 620.835 122.716C624.165 122.838 627.476 122.183 630.509 120.802C633.541 119.421 636.211 117.353 638.307 114.761C640.403 112.169 641.868 109.124 642.585 105.868C643.302 102.611 643.253 99.2326 642.44 95.9986Z" fill="white"/></g><path d="M575.648 233.72L572.872 149.689" stroke="#3F3D56" stroke-width="2" stroke-miterlimit="10"/><path d="M572.872 161.579C579.432 161.579 584.75 156.256 584.75 149.689C584.75 143.123 579.432 137.799 572.872 137.799C566.312 137.799 560.994 143.123 560.994 149.689C560.994 156.256 566.312 161.579 572.872 161.579Z" fill="#596E44"/><path d="M574.583 201.479C574.583 201.479 571.68 165.024 537.054 170.419Z" fill="#596E44"/></g><defs><linearGradient id="paint0_linear_84_22013" x1="627.112" y1="116.91" x2="627.112" y2="107.699" gradientUnits="userSpaceOnUse"><stop stop-color="#808080" stop-opacity="0.25"/><stop offset="0.53514" stop-color="#808080" stop-opacity="0.12"/><stop offset="1" stop-color="#808080" stop-opacity="0.1"/></linearGradient><clipPath id="clip0_84_22013"><rect width="704" height="493.906" fill="white" transform="translate(0 0.0471191)"/></clipPath></defs></svg>
