<svg viewBox="0 0 576 269" xmlns="http://www.w3.org/2000/svg"><path d="M564.449 253.471C403.128 184.267 258.429 187.946 165.45 203.215C64.6919 219.764 1.27167 253.112 0.643013 253.447L0 252.24C0.63033 251.904 64.2082 218.466 165.171 201.875C224.502 192.131 284.835 190.016 344.702 195.582C419.497 202.542 493.612 221.595 564.988 252.215L564.449 253.471Z" fill="#F2F2F2"/><path d="M192.065 126.363L153.867 96.1136C152.252 94.8273 151.208 92.9577 150.96 90.9083C150.711 88.859 151.279 86.7942 152.54 85.1596C153.192 84.3139 154.009 83.6099 154.942 83.0905C155.875 82.5712 156.905 82.2473 157.967 82.1386C159.029 82.0299 160.103 82.1387 161.122 82.4584C162.141 82.7781 163.084 83.302 163.894 83.9981L202.609 116.636L226.971 135.476C228.199 134.785 229.61 134.488 231.012 134.626C232.414 134.765 233.74 135.332 234.809 136.25C235.878 137.168 236.639 138.393 236.987 139.759C237.336 141.124 237.256 142.564 236.757 143.882C236.259 145.201 235.367 146.334 234.203 147.127C233.038 147.921 231.658 148.337 230.249 148.319C228.84 148.301 227.47 147.849 226.327 147.025C225.183 146.202 224.321 145.046 223.857 143.715L192.065 126.363Z" fill="#FFB6B6"/><path d="M158.871 105.787C158.368 105.856 157.856 105.758 157.414 105.508C156.972 105.258 156.624 104.87 156.424 104.403C156.166 103.832 155.737 103.355 155.195 103.04C155.09 102.98 154.98 102.928 154.868 102.882C154.184 102.625 153.573 102.206 153.086 101.662C152.599 101.118 152.25 100.464 152.07 99.7563C151.51 97.4185 149.713 95.1503 147.907 93.4011C145.931 91.4871 143.822 89.6514 142.362 87.32C140.255 83.9569 139.664 79.2369 143.728 76.4311C145.475 75.2646 147.571 74.7358 149.662 74.9341C154.04 75.2904 157.661 77.9619 161.1 80.5508L160.239 78.8607C163.946 81.7538 168.2 83.8684 172.744 85.0777C171.958 85.7926 172.639 87.2222 173.649 87.5547C174.658 87.8872 175.746 87.5368 176.785 87.3161C178.095 87.038 179.715 87.0617 180.232 88.6261C180.345 89.0038 180.379 89.4008 180.331 89.7922C180.284 90.1835 180.156 90.5608 179.955 90.9003C176.305 97.3961 171.35 103.067 165.403 107.556C164.081 108.552 162.547 109.532 160.904 109.337C159.26 109.143 157.863 107.1 158.871 105.787Z" fill="#83A26A"/><path d="M128.589 148.011L125.023 130.824L162.499 119.019L157.453 158.583L128.589 148.011Z" fill="#FFB6B6"/><path d="M161.46 132.646L125.343 148.223C125.343 148.223 120.701 148.018 120.701 145.214C120.701 142.409 123.296 141.822 119.895 139.661C116.494 137.5 115.091 138.903 115.792 135.397C116.494 131.89 117.195 130.731 117.195 129.908C117.195 129.086 116.494 125.58 116.494 122.073C116.494 120.374 121.954 117.287 120.596 107.327C118.941 95.1909 119.521 76.6189 131.219 72.9886L139.634 58.2631H155.673L160.67 72.9886L166.593 80.7506C166.593 80.7506 178.276 95.5247 174.77 103.238C171.264 110.951 161.46 132.646 161.46 132.646Z" fill="#2F2E41"/><path d="M232.827 156.001C232.764 143.483 230.69 131.057 226.685 119.197C225.535 115.794 224.228 112.451 222.765 109.167C222.228 107.961 220.384 108.86 220.921 110.067C225.896 121.26 229.045 133.178 230.247 145.368C230.591 148.851 230.769 152.345 230.782 155.848C230.789 157.159 232.834 157.324 232.827 156.001Z" fill="#3F3D56"/><path d="M222.552 107.577L223.711 111.015C213.862 110.033 212.68 97.6319 206.194 90.1578C199.703 82.6918 187.982 80.2276 188.387 70.3405C188.448 68.9103 188.674 67.3096 189.796 66.4167C191.2 65.3127 193.252 65.8566 194.901 66.541C196.642 67.2694 198.331 68.1158 199.956 69.0743C200.47 70.442 200.982 71.81 201.493 73.1783C201.666 73.6476 201.968 74.0585 202.364 74.3635C202.761 74.6685 203.235 74.8553 203.733 74.9023C204.231 74.9493 204.732 74.8545 205.178 74.629C205.625 74.4034 205.998 74.0563 206.256 73.6276L206.281 73.5841C225.9 73.5546 228.149 89.6685 222.552 107.577Z" fill="#83A26A"/><path d="M223.072 111.47C218.253 113.377 214.183 109.314 209.37 107.396C204.551 105.47 199.033 105.714 196.843 101.01C196.646 100.689 196.52 100.33 196.471 99.9567C196.422 99.5833 196.453 99.2038 196.56 98.8429C196.947 97.9874 198.034 97.7537 198.965 97.6729C200.264 97.5697 201.568 97.5829 202.864 97.7121C203.178 98.2774 203.485 98.849 203.798 99.4211C204.329 100.387 204.853 101.352 205.384 102.317C206.344 101.242 207.132 100.024 207.719 98.7078C216.596 94.9976 220.466 101.593 221.704 110.147L223.072 111.47Z" fill="#83A26A"/><path d="M221.736 111.37C226.216 113.976 230.847 110.566 235.893 109.389C240.946 108.205 246.365 109.271 249.234 104.947C249.476 104.659 249.655 104.323 249.759 103.961C249.863 103.599 249.89 103.219 249.838 102.847C249.583 101.943 248.543 101.549 247.634 101.33C246.366 101.034 245.074 100.852 243.773 100.786C243.378 101.298 242.99 101.818 242.594 102.336C241.925 103.212 241.263 104.088 240.593 104.963C239.805 103.756 239.208 102.435 238.824 101.045C230.601 96.05 225.79 101.993 223.286 110.266L221.736 111.37Z" fill="#83A26A"/><path d="M221.824 111.549C226.678 109.733 226.973 103.99 229.258 99.3392C231.542 94.6791 235.799 91.1604 234.27 86.2021C234.201 85.832 234.054 85.4808 233.84 85.1711C233.625 84.8614 233.348 84.6002 233.027 84.4044C232.166 84.0289 231.203 84.5845 230.458 85.1493C229.425 85.9431 228.466 86.8277 227.592 87.7923C227.738 88.4223 227.893 89.0521 228.044 89.6867C228.298 90.759 228.556 91.8263 228.81 92.8986C227.376 92.7444 225.976 92.3692 224.657 91.7864C215.583 94.986 217.135 102.473 221.951 109.65L221.824 111.549Z" fill="#83A26A"/><path d="M140.953 43.4218C152.742 52.3901 165.871 59.5277 168.346 69.3974C168.346 69.3974 166.864 53.89 173.779 56.8293C185.398 61.7681 181.467 34.9092 178.208 30.5172C172.778 23.1972 154.466 19.0378 154.466 19.0378L141.476 26.1689L140.953 43.4218Z" fill="#2F2E41"/><path d="M161.482 54.305C172.727 54.305 181.843 45.189 181.843 33.9438C181.843 22.6986 172.727 13.5826 161.482 13.5826C150.236 13.5826 141.12 22.6986 141.12 33.9438C141.12 45.189 150.236 54.305 161.482 54.305Z" fill="#FFB6B6"/><path d="M154.149 26.1531L153.365 29.5945L167.062 32.7126C167.074 32.0166 167.23 31.3306 167.52 30.6977C167.81 30.0648 168.227 29.4986 168.746 29.0347C168.451 30.3841 168.484 31.7848 168.844 33.1184C176.231 37.2634 175.807 38.7318 181.777 37.6748C182.585 37.8589 183.434 37.7142 184.136 37.2725C184.838 36.8308 185.336 36.1283 185.52 35.3195C187.922 24.7684 188.712 13.9844 178.212 11.3655C175.66 10.7274 173.007 10.6052 170.407 11.0062C167.807 11.4071 165.313 12.3231 163.072 13.7004C160.83 15.0777 158.887 16.8886 157.354 19.027C155.822 21.1653 154.732 23.5881 154.149 26.1531Z" fill="#2F2E41"/><path d="M157.499 39.8833C158.169 36.9441 159.484 34.1904 161.348 31.8208C163.212 29.4512 165.578 27.5248 168.277 26.1807C170.975 24.8365 173.938 24.108 176.952 24.0477C179.966 23.9875 182.956 24.597 185.706 25.8324C184.754 23.021 182.826 20.6436 180.272 19.1308L164.855 12.4374C157.25 10.7062 145.212 5.79257 139.719 10.498C134.659 14.8207 137.122 23.2822 132.462 28.021C127.355 33.2144 126.921 39.3551 128.369 42.8871C130.045 46.9732 133.397 52.5479 137.58 53.7545C137.798 52.3165 138.515 51.0011 139.606 50.0394C139.304 51.4098 139.278 52.8266 139.529 54.2073L164.855 74.4062C162.489 72.3488 160.474 67.0479 159.086 61.0774C158.265 57.5433 153.363 56.303 157.338 50.305C161.314 44.3071 156.959 42.2545 157.499 39.8833Z" fill="#2F2E41"/><path d="M137.214 17.3539L137.285 17.496C137.372 17.6855 137.459 17.8749 137.53 18.0723L137.538 18.0802C137.925 18.2223 138.359 17.9933 138.785 17.6302C138.719 18.4839 138.671 19.31 138.636 20.1196L152.119 14.8435C149.774 15.2483 149.427 6.90577 147.745 8.50438C147.651 8.59122 147.564 8.67806 147.477 8.7649C147.686 8.26188 147.83 7.73382 147.903 7.19394C147.975 6.51632 147.922 5.83124 147.745 5.17301C147.742 5.16989 147.74 5.16615 147.739 5.16205C147.737 5.15795 147.737 5.15359 147.737 5.1493C147.569 4.5541 147.308 3.98924 146.964 3.47571C146.467 2.72886 145.838 2.0788 145.109 1.5574C144.178 0.845931 143.092 0.363698 141.94 0.149746C140.788 -0.0642052 139.602 -0.00386313 138.477 0.325889C135.902 1.30018 133.773 3.18476 132.494 5.62294C131.428 7.5413 130.615 9.69641 130.78 11.8831C130.829 12.4628 130.953 13.0335 131.151 13.5804C131.398 14.3485 131.818 15.0494 132.379 15.6286C132.941 16.2078 133.628 16.6496 134.388 16.9197C134.578 16.9828 134.799 17.0539 135.035 17.1407C135.162 16.1135 135.17 15.0752 135.059 14.0462C135.937 15.0363 136.663 16.151 137.214 17.3539Z" fill="#2F2E41"/><path d="M150.271 14.3067C150.254 14.747 150.201 15.1852 150.114 15.6171C150.107 15.6731 150.096 15.7285 150.082 15.7829C149.529 18.2381 146.537 13.1305 144.224 14.8435C142.44 16.1618 141.453 16.4382 139.488 17.2118C139.417 17.0144 138.785 17.4013 138.698 17.2118C138.675 17.1644 138.722 16.4697 138.698 16.4224C140.617 15.6566 140.932 15.3172 142.646 14.0541C144.816 12.4515 144.509 13.9515 145.014 11.6858C145.598 9.07278 149.04 10.1938 147.272 8.95434L147.477 8.67017C148.733 9.53732 149.659 10.8029 150.106 12.2621C150.105 12.2663 150.106 12.2707 150.107 12.2748C150.108 12.2789 150.111 12.2826 150.114 12.2858C150.246 12.9508 150.299 13.6292 150.271 14.3067Z" fill="#83A26A"/><path d="M452.992 252.745H438.259L431.558 218.023C431.457 217.496 431.473 216.952 431.605 216.431C431.738 215.91 431.985 215.425 432.327 215.01C432.669 214.596 433.099 214.262 433.585 214.033C434.071 213.804 434.602 213.685 435.14 213.685H456.112C456.65 213.685 457.18 213.804 457.667 214.033C458.153 214.262 458.583 214.596 458.925 215.01C459.267 215.425 459.513 215.91 459.646 216.431C459.779 216.952 459.795 217.496 459.693 218.023L452.992 252.745Z" fill="#F2F2F2"/><path d="M364.084 252.975C363.988 253.018 349.255 253.018 349.351 253.061C344.057 244.291 342.005 236.88 341.326 231.455C341.177 230.213 341.292 228.953 341.665 227.759C342.037 226.565 342.658 225.463 343.487 224.526C344.316 223.589 345.333 222.838 346.473 222.322C347.613 221.806 348.849 221.537 350.1 221.533L363.436 221.455C364.602 221.447 365.759 221.669 366.839 222.108C367.92 222.547 368.903 223.195 369.733 224.014C370.563 224.834 371.224 225.809 371.677 226.883C372.131 227.958 372.368 229.111 372.375 230.278C372.405 236.87 370.93 245.907 364.084 252.975Z" fill="#F2F2F2"/><path d="M356.471 222.579C357.192 216.725 356.902 210.791 355.611 205.036C355.396 204.07 353.912 204.479 354.128 205.445C355.377 211.068 355.649 216.864 354.933 222.579C354.811 223.56 356.35 223.551 356.471 222.579Z" fill="#F2F2F2"/><path d="M358.531 222.962C358.878 218.081 360.098 213.302 362.135 208.852C362.544 207.958 361.219 207.175 360.806 208.075C358.651 212.768 357.359 217.811 356.993 222.962C356.923 223.95 358.461 223.946 358.531 222.962Z" fill="#F2F2F2"/><path d="M354.227 222.805C353.78 217.339 352.215 212.024 349.628 207.188C349.161 206.315 347.833 207.091 348.3 207.964C350.762 212.559 352.255 217.61 352.688 222.805C352.769 223.785 354.308 223.793 354.227 222.805Z" fill="#F2F2F2"/><path d="M349.079 206.678C348.202 206.357 348.103 205.019 347.899 204.25C347.758 203.659 347.533 203.092 347.228 202.567C346.879 202.043 346.48 201.554 346.037 201.107C345.675 200.775 345.381 200.376 345.171 199.931C345.107 199.761 345.089 199.577 345.119 199.397C345.148 199.32 345.17 199.24 345.184 199.158L345.195 199.132C345.243 199.038 345.17 199.052 344.976 199.173C344.976 199.185 345.348 199.391 345.387 199.42C346.449 200.252 347.262 201.36 347.735 202.623C348.208 203.886 348.324 205.256 348.069 206.581C347.87 207.547 349.353 207.96 349.553 206.99C349.887 205.338 349.747 203.625 349.147 202.05C348.547 200.475 347.512 199.102 346.163 198.092C345.815 197.804 345.376 197.647 344.924 197.65C344.653 197.679 344.397 197.788 344.187 197.962C343.978 198.136 343.824 198.367 343.745 198.628C343.613 198.981 343.558 199.357 343.582 199.733C343.605 200.108 343.708 200.474 343.883 200.808C344.522 202.081 345.845 202.813 346.288 204.215C346.779 205.771 346.913 207.52 348.671 208.161C348.867 208.213 349.077 208.186 349.254 208.086C349.43 207.985 349.561 207.819 349.617 207.624C349.667 207.427 349.639 207.219 349.539 207.042C349.438 206.866 349.274 206.735 349.079 206.678Z" fill="#F2F2F2"/><path d="M355.247 204.622C354.335 204.291 354.247 203.054 354 202.257C353.547 201.068 352.87 199.977 352.006 199.042C351.658 198.665 351.41 198.208 351.285 197.71C351.271 197.615 351.268 197.518 351.277 197.422C351.287 197.33 351.364 197.187 351.351 197.103L351.362 197.076C351.411 196.982 351.338 196.996 351.143 197.118C351.188 197.134 351.232 197.153 351.274 197.176C351.39 197.275 351.537 197.349 351.658 197.446C352.634 198.231 353.388 199.257 353.845 200.423C354.369 201.724 354.504 203.149 354.237 204.525C354.037 205.491 355.52 205.904 355.72 204.934C356.047 203.32 355.921 201.647 355.355 200.101C354.789 198.555 353.805 197.196 352.514 196.175C352.202 195.901 351.828 195.709 351.423 195.614C351.154 195.567 350.876 195.605 350.629 195.723C350.382 195.842 350.178 196.034 350.045 196.273C349.863 196.62 349.758 197.003 349.738 197.394C349.718 197.785 349.783 198.176 349.929 198.54C350.473 199.937 351.82 200.824 352.363 202.213C352.65 202.949 352.77 203.736 353.083 204.463C353.241 204.846 353.48 205.191 353.782 205.474C354.085 205.758 354.445 205.973 354.838 206.105C355.77 206.443 356.172 204.957 355.247 204.622Z" fill="#F2F2F2"/><path d="M362.092 208.113C361.498 207.016 362.328 205.713 362.673 204.66C363.044 203.526 362.988 202.341 363.253 201.191C363.326 200.723 363.563 200.296 363.922 199.986C364.02 199.912 364.329 199.828 364.085 199.794C363.907 199.768 363.994 199.799 364.042 199.97C364.112 200.232 364.16 200.499 364.186 200.77C364.303 201.957 364.135 203.155 363.695 204.264C363.227 205.472 362.436 206.528 361.41 207.319C361.239 207.426 361.115 207.595 361.063 207.791C361.012 207.986 361.037 208.194 361.134 208.371C361.238 208.547 361.407 208.674 361.604 208.725C361.801 208.777 362.01 208.749 362.187 208.647C363.431 207.713 364.41 206.469 365.025 205.039C365.64 203.61 365.87 202.044 365.692 200.498C365.593 199.724 365.45 198.69 364.601 198.386C363.77 198.09 362.926 198.692 362.433 199.327C361.513 200.513 361.684 202.057 361.404 203.449C361.029 205.315 359.734 206.987 360.763 208.89C361.234 209.761 362.563 208.985 362.092 208.113Z" fill="#F2F2F2"/><path d="M355.582 199.205C354.944 198.036 355.572 196.724 355.89 195.551C356.084 194.388 356.344 193.238 356.669 192.104C356.822 191.679 357.099 191.309 357.466 191.043C357.539 190.996 357.615 190.955 357.694 190.919C357.686 190.867 357.461 190.886 357.468 190.869C357.49 190.977 357.521 191.084 357.562 191.186C357.623 191.453 357.665 191.724 357.688 191.997C357.779 193.14 357.607 194.289 357.185 195.355C356.717 196.563 355.926 197.62 354.9 198.411C354.729 198.518 354.605 198.686 354.554 198.882C354.502 199.078 354.528 199.285 354.624 199.463C354.728 199.638 354.897 199.765 355.094 199.817C355.291 199.868 355.5 199.84 355.677 199.739C356.913 198.812 357.886 197.58 358.503 196.163C359.119 194.746 359.356 193.193 359.191 191.657C359.101 190.923 358.992 189.962 358.275 189.556C357.489 189.109 356.586 189.667 356.044 190.248C355.003 191.364 354.88 192.918 354.594 194.343C354.211 196.257 353.221 198.09 354.253 199.981C354.727 200.851 356.056 200.075 355.582 199.205Z" fill="#F2F2F2"/><path d="M360.179 213.901C360.732 213.002 361.853 212.911 362.803 212.742C363.397 212.646 363.981 212.496 364.548 212.294C365.164 212.064 365.756 211.774 366.378 211.56C366.896 211.328 367.478 211.277 368.03 211.414C368.061 211.425 368.408 211.616 368.422 211.609C368.471 211.583 368.338 211.407 368.349 211.406C368.342 211.407 368.288 211.486 368.276 211.494C368.041 211.656 367.846 211.89 367.612 212.059C366.651 212.749 365.54 213.199 364.37 213.373C363.075 213.575 361.748 213.416 360.537 212.913C360.36 212.817 360.152 212.792 359.957 212.843C359.761 212.894 359.592 213.018 359.485 213.189C359.383 213.366 359.355 213.575 359.407 213.772C359.459 213.969 359.586 214.138 359.761 214.242C361.228 214.874 362.839 215.101 364.424 214.9C366.009 214.698 367.511 214.075 368.774 213.096C369.401 212.603 370.095 211.944 369.832 211.065C369.588 210.251 368.57 209.891 367.811 209.81C366.154 209.633 364.697 210.755 363.138 211.112C361.51 211.484 359.819 211.549 358.851 213.124C358.331 213.97 359.661 214.744 360.179 213.901Z" fill="#F2F2F2"/><path d="M356.14 204.543C355.541 203.15 355.474 201.586 355.951 200.147C356.428 198.707 357.415 197.493 358.727 196.733C358.787 196.699 358.847 196.665 358.908 196.633C359.02 196.614 359.038 196.588 358.959 196.555C359.084 196.131 358.91 196.464 358.864 196.571C358.724 196.897 358.583 197.221 358.439 197.545C358.118 198.268 357.789 198.987 357.451 199.703C356.756 201.178 356.028 202.639 355.231 204.063C354.747 204.928 356.076 205.704 356.56 204.839C357.331 203.461 358.037 202.047 358.714 200.62C359.044 199.921 359.367 199.22 359.682 198.514C359.82 198.204 359.957 197.893 360.091 197.582C360.28 197.249 360.408 196.886 360.47 196.508C360.47 196.303 360.427 196.1 360.343 195.912C360.259 195.724 360.136 195.556 359.983 195.419C359.83 195.282 359.649 195.178 359.454 195.115C359.258 195.052 359.051 195.031 358.847 195.053C358.09 195.25 357.397 195.64 356.837 196.186C355.704 197.132 354.868 198.383 354.427 199.791C353.879 201.619 354.016 203.585 354.812 205.319C354.916 205.494 355.084 205.621 355.281 205.673C355.478 205.725 355.688 205.697 355.864 205.595C356.036 205.489 356.161 205.32 356.213 205.124C356.264 204.928 356.238 204.72 356.14 204.543Z" fill="#F2F2F2"/><path d="M350.638 212.084C349.533 212.58 348.185 211.634 347.196 211.228C346.09 210.774 344.906 210.73 343.779 210.369C343.354 210.253 342.983 209.994 342.728 209.636C342.694 209.563 342.653 209.493 342.608 209.427C342.647 209.436 342.442 209.563 342.53 209.545C342.609 209.529 342.688 209.509 342.767 209.495C343.053 209.45 343.341 209.426 343.63 209.425C344.864 209.408 346.083 209.702 347.173 210.279C348.264 210.856 349.192 211.698 349.872 212.728C350.406 213.558 351.738 212.788 351.201 211.952C350.352 210.644 349.175 209.582 347.788 208.871C346.4 208.16 344.85 207.825 343.293 207.9C342.522 207.95 341.579 208.035 341.183 208.806C340.778 209.593 341.368 210.556 341.955 211.08C343.082 212.085 344.638 212.031 346.01 212.433C346.926 212.702 347.75 213.2 348.651 213.509C349.548 213.844 350.542 213.809 351.414 213.412C351.589 213.308 351.716 213.14 351.768 212.943C351.82 212.746 351.792 212.536 351.69 212.36C351.584 212.187 351.415 212.063 351.219 212.011C351.023 211.96 350.815 211.986 350.638 212.084Z" fill="#F2F2F2"/><path d="M539.661 252.665C539.564 252.708 524.831 252.708 524.928 252.75C519.633 243.981 517.581 236.569 516.902 231.145C516.753 229.903 516.868 228.643 517.241 227.449C517.613 226.255 518.235 225.153 519.063 224.216C519.892 223.279 520.91 222.527 522.049 222.012C523.189 221.496 524.425 221.227 525.676 221.223L539.012 221.145C540.178 221.137 541.335 221.359 542.415 221.798C543.496 222.237 544.479 222.885 545.31 223.704C546.14 224.524 546.8 225.498 547.253 226.573C547.707 227.648 547.944 228.801 547.951 229.968C547.981 236.56 546.506 245.597 539.661 252.665Z" fill="#F2F2F2"/><path d="M532.047 222.269C532.769 216.415 532.478 210.481 531.187 204.726C530.972 203.76 529.488 204.168 529.704 205.135C530.953 210.758 531.225 216.554 530.509 222.269C530.387 223.249 531.927 223.241 532.047 222.269Z" fill="#F2F2F2"/><path d="M534.107 222.652C534.454 217.771 535.674 212.992 537.711 208.542C538.121 207.648 536.795 206.865 536.383 207.765C534.227 212.458 532.935 217.501 532.569 222.652C532.499 223.64 534.037 223.636 534.107 222.652Z" fill="#F2F2F2"/><path d="M529.803 222.495C529.356 217.029 527.791 211.714 525.205 206.878C524.737 206.005 523.409 206.781 523.876 207.654C526.338 212.249 527.831 217.3 528.264 222.495C528.345 223.475 529.884 223.483 529.803 222.495Z" fill="#F2F2F2"/><path d="M524.656 206.368C523.778 206.047 523.679 204.709 523.475 203.94C523.335 203.349 523.109 202.782 522.804 202.257C522.455 201.733 522.056 201.245 521.614 200.797C521.251 200.465 520.957 200.066 520.747 199.621C520.683 199.451 520.665 199.267 520.696 199.087C520.725 199.01 520.746 198.93 520.76 198.849L520.771 198.822C520.819 198.728 520.746 198.742 520.552 198.863C520.552 198.875 520.924 199.081 520.963 199.11C522.026 199.942 522.838 201.05 523.311 202.313C523.784 203.577 523.9 204.946 523.645 206.271C523.446 207.237 524.929 207.65 525.129 206.68C525.464 205.028 525.323 203.315 524.723 201.74C524.123 200.165 523.089 198.792 521.74 197.782C521.391 197.494 520.952 197.337 520.5 197.34C520.229 197.369 519.973 197.478 519.763 197.652C519.554 197.826 519.4 198.057 519.321 198.318C519.19 198.671 519.134 199.047 519.158 199.423C519.182 199.798 519.284 200.164 519.459 200.498C520.098 201.772 521.422 202.503 521.864 203.905C522.355 205.461 522.489 207.21 524.247 207.851C524.443 207.903 524.653 207.876 524.83 207.776C525.007 207.675 525.137 207.509 525.193 207.314C525.243 207.117 525.215 206.909 525.115 206.733C525.015 206.556 524.85 206.425 524.656 206.368Z" fill="#F2F2F2"/><path d="M530.823 204.312C529.911 203.981 529.823 202.744 529.576 201.947C529.123 200.758 528.446 199.666 527.582 198.732C527.234 198.355 526.986 197.897 526.861 197.4C526.847 197.305 526.844 197.208 526.853 197.112C526.863 197.019 526.94 196.877 526.927 196.793L526.939 196.766C526.987 196.672 526.914 196.686 526.719 196.807C526.764 196.824 526.808 196.843 526.85 196.865C526.966 196.965 527.113 197.039 527.234 197.136C528.21 197.921 528.964 198.947 529.421 200.113C529.945 201.414 530.08 202.838 529.813 204.215C529.614 205.181 531.096 205.594 531.296 204.624C531.623 203.01 531.497 201.337 530.931 199.791C530.365 198.245 529.382 196.886 528.09 195.865C527.778 195.591 527.404 195.399 526.999 195.304C526.73 195.257 526.452 195.295 526.205 195.413C525.958 195.531 525.754 195.724 525.621 195.963C525.439 196.31 525.334 196.692 525.314 197.084C525.294 197.475 525.359 197.866 525.505 198.23C526.049 199.627 527.396 200.514 527.939 201.903C528.226 202.638 528.346 203.426 528.659 204.153C528.817 204.536 529.056 204.881 529.359 205.164C529.661 205.447 530.021 205.663 530.414 205.795C531.346 206.133 531.748 204.647 530.823 204.312Z" fill="#F2F2F2"/><path d="M537.668 207.803C537.074 206.705 537.904 205.403 538.249 204.35C538.62 203.216 538.564 202.031 538.83 200.881C538.903 200.413 539.14 199.986 539.498 199.676C539.596 199.602 539.905 199.518 539.662 199.483C539.483 199.458 539.57 199.488 539.618 199.66C539.688 199.922 539.737 200.189 539.762 200.459C539.879 201.647 539.711 202.845 539.272 203.954C538.803 205.162 538.013 206.218 536.986 207.009C536.815 207.116 536.691 207.285 536.64 207.48C536.588 207.676 536.614 207.884 536.71 208.061C536.814 208.236 536.983 208.364 537.18 208.415C537.377 208.467 537.586 208.439 537.763 208.337C539.008 207.403 539.986 206.159 540.601 204.729C541.216 203.3 541.446 201.734 541.268 200.187C541.17 199.414 541.027 198.38 540.178 198.076C539.347 197.779 538.503 198.382 538.01 199.017C537.09 200.203 537.26 201.747 536.981 203.139C536.605 205.005 535.311 206.677 536.339 208.58C536.811 209.451 538.139 208.675 537.668 207.803Z" fill="#F2F2F2"/><path d="M531.158 198.895C530.52 197.726 531.149 196.414 531.466 195.241C531.66 194.078 531.92 192.927 532.245 191.794C532.398 191.368 532.676 190.999 533.042 190.733C533.115 190.686 533.191 190.645 533.27 190.609C533.262 190.557 533.037 190.576 533.045 190.559C533.066 190.667 533.097 190.774 533.138 190.876C533.199 191.143 533.242 191.414 533.264 191.687C533.355 192.83 533.183 193.979 532.762 195.045C532.293 196.253 531.503 197.31 530.476 198.1C530.305 198.208 530.181 198.376 530.13 198.572C530.078 198.768 530.104 198.975 530.2 199.153C530.304 199.328 530.473 199.455 530.67 199.507C530.867 199.558 531.076 199.53 531.253 199.429C532.489 198.502 533.463 197.27 534.079 195.853C534.695 194.436 534.932 192.883 534.767 191.347C534.677 190.613 534.569 189.652 533.851 189.245C533.065 188.799 532.162 189.357 531.62 189.938C530.579 191.054 530.456 192.608 530.171 194.033C529.787 195.947 528.798 197.78 529.829 199.671C530.303 200.541 531.632 199.765 531.158 198.895Z" fill="#F2F2F2"/><path d="M535.755 213.591C536.308 212.692 537.429 212.601 538.379 212.432C538.973 212.336 539.557 212.186 540.124 211.984C540.74 211.754 541.332 211.464 541.954 211.25C542.473 211.018 543.054 210.967 543.606 211.104C543.637 211.115 543.985 211.306 543.998 211.299C544.047 211.273 543.914 211.097 543.925 211.097C543.918 211.097 543.864 211.176 543.852 211.184C543.618 211.346 543.422 211.58 543.188 211.749C542.227 212.439 541.116 212.889 539.946 213.063C538.651 213.265 537.325 213.106 536.113 212.603C535.936 212.507 535.728 212.482 535.533 212.533C535.337 212.584 535.169 212.708 535.061 212.879C534.96 213.056 534.932 213.265 534.983 213.462C535.035 213.659 535.162 213.828 535.337 213.932C536.805 214.564 538.415 214.791 540 214.59C541.585 214.388 543.087 213.765 544.35 212.786C544.977 212.293 545.672 211.634 545.408 210.755C545.164 209.941 544.146 209.581 543.387 209.5C541.731 209.323 540.273 210.445 538.714 210.802C537.087 211.174 535.395 211.239 534.427 212.814C533.907 213.66 535.237 214.434 535.755 213.591Z" fill="#F2F2F2"/><path d="M531.716 204.233C531.117 202.84 531.05 201.276 531.527 199.836C532.004 198.397 532.992 197.183 534.304 196.423C534.363 196.388 534.423 196.355 534.484 196.323C534.597 196.304 534.614 196.278 534.535 196.245C534.661 195.821 534.486 196.154 534.44 196.261C534.301 196.587 534.159 196.911 534.015 197.235C533.695 197.958 533.365 198.677 533.028 199.393C532.332 200.868 531.604 202.329 530.807 203.753C530.323 204.618 531.652 205.394 532.136 204.529C532.907 203.151 533.614 201.737 534.29 200.31C534.62 199.611 534.943 198.909 535.258 198.204C535.396 197.894 535.533 197.583 535.668 197.272C535.856 196.939 535.985 196.576 536.046 196.198C536.046 195.993 536.003 195.789 535.919 195.602C535.835 195.414 535.712 195.246 535.559 195.109C535.406 194.972 535.226 194.868 535.03 194.805C534.834 194.742 534.627 194.721 534.423 194.743C533.666 194.94 532.973 195.33 532.413 195.876C531.281 196.822 530.444 198.073 530.003 199.481C529.455 201.309 529.592 203.274 530.388 205.009C530.492 205.184 530.66 205.311 530.857 205.363C531.054 205.415 531.264 205.387 531.44 205.285C531.613 205.179 531.737 205.01 531.789 204.814C531.84 204.618 531.814 204.41 531.716 204.233Z" fill="#F2F2F2"/><path d="M526.214 211.774C525.109 212.27 523.762 211.324 522.772 210.918C521.666 210.464 520.482 210.42 519.355 210.059C518.931 209.943 518.559 209.684 518.305 209.326C518.27 209.253 518.23 209.183 518.184 209.117C518.223 209.126 518.018 209.253 518.106 209.235C518.185 209.219 518.264 209.199 518.343 209.185C518.629 209.14 518.917 209.116 519.206 209.115C520.44 209.098 521.659 209.392 522.75 209.969C523.84 210.546 524.769 211.388 525.449 212.418C525.982 213.248 527.315 212.478 526.777 211.641C525.928 210.334 524.751 209.272 523.364 208.561C521.976 207.85 520.426 207.515 518.869 207.59C518.098 207.64 517.155 207.725 516.759 208.496C516.355 209.283 516.944 210.246 517.531 210.77C518.658 211.775 520.214 211.721 521.586 212.123C522.502 212.392 523.326 212.89 524.227 213.199C525.125 213.534 526.118 213.499 526.99 213.102C527.165 212.998 527.293 212.83 527.344 212.633C527.396 212.436 527.368 212.226 527.266 212.05C527.16 211.877 526.991 211.752 526.795 211.701C526.599 211.65 526.391 211.676 526.214 211.774Z" fill="#F2F2F2"/><path d="M444.89 216.096C448.996 202.49 447.874 187.842 441.745 175.019C441.32 174.126 439.993 174.906 440.417 175.796C444.969 185.441 446.672 196.185 445.326 206.764C444.936 209.787 444.294 212.772 443.406 215.687C443.36 215.881 443.391 216.086 443.493 216.257C443.594 216.429 443.759 216.554 443.951 216.607C444.143 216.66 444.348 216.637 444.524 216.541C444.699 216.446 444.83 216.286 444.89 216.096Z" fill="#F2F2F2"/><path d="M447.304 198.889L458.338 184.321L456.904 183.932C457.102 188.89 456.356 193.841 454.706 198.52C453.279 202.55 450.815 207.808 445.856 207.97C444.868 208.002 444.864 209.541 445.856 209.508C451.133 209.336 454.038 204.49 455.751 200.104C457.747 194.955 458.663 189.45 458.443 183.932C458.437 183.766 458.379 183.606 458.275 183.476C458.172 183.346 458.03 183.252 457.87 183.208C457.709 183.165 457.539 183.174 457.384 183.234C457.229 183.295 457.098 183.404 457.009 183.544L445.976 198.113C445.378 198.902 446.713 199.669 447.304 198.889Z" fill="#F2F2F2"/><path d="M446.733 192.625L440.197 183.057C440.117 182.931 440.003 182.83 439.868 182.767C439.733 182.703 439.583 182.68 439.435 182.699C439.287 182.719 439.148 182.78 439.034 182.876C438.919 182.972 438.835 183.098 438.791 183.241C437.418 186.838 437.368 190.807 438.649 194.438C439.931 198.07 442.461 201.128 445.788 203.067C445.963 203.162 446.169 203.184 446.361 203.13C446.553 203.077 446.717 202.95 446.818 202.778C446.918 202.605 446.948 202.401 446.901 202.207C446.854 202.013 446.733 201.845 446.564 201.738C443.53 199.97 441.228 197.174 440.075 193.857C438.921 190.54 438.992 186.919 440.274 183.65L438.868 183.833L445.405 193.402C445.96 194.214 447.294 193.446 446.733 192.625Z" fill="#F2F2F2"/><path d="M440.976 174.489C439.463 174.414 437.89 174.322 436.624 173.395C436.146 173.042 435.738 172.601 435.423 172.097C435.267 171.855 435.135 171.6 435.027 171.334C434.914 171.079 434.845 170.807 434.825 170.529C434.825 170.603 434.898 170.47 434.828 170.528L434.717 170.616C434.677 170.67 434.619 170.707 434.554 170.72C434.489 170.733 434.421 170.722 434.364 170.689C434.243 170.704 434.326 170.503 434.304 170.861C434.238 171.244 434.237 171.636 434.3 172.021C434.344 172.207 434.426 172.382 434.541 172.535C434.657 172.688 434.803 172.815 434.97 172.908C435.137 173.001 435.322 173.059 435.513 173.076C435.703 173.094 435.896 173.072 436.077 173.011C436.335 172.915 436.584 172.797 436.822 172.66L436.892 172.625C436.976 172.585 436.983 172.582 436.913 172.616C436.971 172.517 437.005 172.711 436.907 172.6L436.972 172.599L436.893 172.594C436.851 172.586 436.81 172.568 436.776 172.542C436.741 172.516 436.712 172.483 436.692 172.444C436.667 172.368 436.663 172.356 436.68 172.411C436.704 172.444 436.705 172.597 436.693 172.449C436.697 172.499 436.697 172.549 436.697 172.599C436.698 172.727 436.69 172.856 436.69 172.984C436.674 173.303 436.744 173.621 436.892 173.904C437.009 174.095 437.175 174.251 437.374 174.355C437.572 174.459 437.795 174.507 438.019 174.494C438.521 174.47 438.806 174.12 439.23 173.929C439.323 173.881 439.43 173.866 439.534 173.886C439.637 173.906 439.731 173.96 439.8 174.039C439.855 174.109 439.89 174.193 439.901 174.281C439.912 174.37 439.898 174.459 439.861 174.541C439.763 174.718 439.737 174.926 439.789 175.122C439.84 175.318 439.965 175.487 440.137 175.593C440.314 175.694 440.523 175.722 440.72 175.67C440.917 175.619 441.085 175.492 441.19 175.317C441.361 175.01 441.449 174.664 441.444 174.312C441.439 173.961 441.341 173.617 441.161 173.315C440.98 173.014 440.723 172.765 440.416 172.595C440.109 172.424 439.762 172.338 439.41 172.344C439.176 172.347 438.944 172.393 438.725 172.478C438.456 172.565 438.208 172.709 437.999 172.9C437.727 173.239 437.915 172.892 437.926 172.962C437.925 172.954 438.2 173.114 438.22 173.128L438.247 173.198C438.227 173.112 438.224 173.114 438.236 173.204C438.236 173.131 438.228 173.057 438.228 172.984C438.254 172.644 438.229 172.302 438.154 171.969C438.09 171.757 437.973 171.565 437.812 171.411C437.652 171.258 437.455 171.149 437.24 171.095C436.826 171.028 436.403 171.112 436.046 171.332C435.91 171.412 435.769 171.484 435.625 171.549C435.751 171.501 435.583 171.565 435.563 171.557C435.469 171.521 435.654 171.555 435.663 171.559C435.716 171.582 435.801 171.695 435.809 171.697C435.775 171.69 435.777 171.571 435.776 171.549C435.758 171.279 435.849 171.011 435.849 170.741C435.858 170.486 435.806 170.232 435.695 170.001C435.585 169.771 435.42 169.571 435.215 169.418C434.996 169.256 434.727 169.175 434.455 169.188C434.183 169.2 433.923 169.306 433.72 169.487C433.023 170.128 433.307 171.175 433.619 171.93C433.966 172.788 434.499 173.56 435.18 174.188C435.861 174.816 436.672 175.285 437.556 175.562C438.671 175.863 439.82 176.02 440.976 176.027C441.18 176.027 441.375 175.946 441.52 175.802C441.664 175.658 441.745 175.462 441.745 175.258C441.745 175.054 441.664 174.858 441.52 174.714C441.375 174.57 441.18 174.489 440.976 174.489Z" fill="#F2F2F2"/><path d="M441.63 175.243C441.772 173.805 441.936 172.273 442.851 171.092C443.249 170.583 443.745 170.158 444.309 169.843C444.567 169.695 444.838 169.574 445.12 169.482C445.278 169.43 445.438 169.395 445.598 169.351C445.881 169.274 445.545 169.343 445.689 169.332C445.73 169.328 445.771 169.327 445.812 169.327C445.909 169.333 445.922 169.333 445.849 169.326C445.961 169.261 445.926 169.395 445.876 169.327L445.83 169.294C445.774 169.24 445.735 169.171 445.721 169.094C445.706 169.018 445.716 168.939 445.748 168.868C445.739 168.77 445.911 168.846 445.661 168.807C445.258 168.711 444.841 168.687 444.43 168.737C444.239 168.771 444.058 168.844 443.897 168.953C443.737 169.061 443.601 169.202 443.499 169.367C443.397 169.531 443.331 169.716 443.305 169.908C443.28 170.099 443.295 170.295 443.349 170.48C443.446 170.756 443.56 171.025 443.691 171.286C443.641 171.164 443.694 171.307 443.704 171.338C443.732 171.433 443.683 171.469 443.714 171.36C443.721 171.309 443.736 171.259 443.759 171.212C443.783 171.174 443.815 171.142 443.854 171.118C443.943 171.085 443.945 171.082 443.86 171.107C443.871 171.088 444.041 171.11 443.862 171.102C443.789 171.099 443.716 171.102 443.644 171.098C443.532 171.092 443.421 171.08 443.31 171.074C442.987 171.043 442.662 171.106 442.373 171.253C442.155 171.383 441.982 171.578 441.878 171.809C441.775 172.041 441.745 172.299 441.794 172.549C441.925 172.914 442.092 173.265 442.292 173.598C442.322 173.689 442.323 173.788 442.295 173.88C442.267 173.972 442.212 174.053 442.136 174.113C442.061 174.172 441.969 174.207 441.873 174.213C441.777 174.219 441.682 174.196 441.599 174.146C440.734 173.662 439.958 174.99 440.823 175.474C441.134 175.661 441.489 175.76 441.852 175.76C442.214 175.76 442.57 175.661 442.881 175.474C443.191 175.287 443.445 175.02 443.615 174.7C443.785 174.379 443.865 174.019 443.846 173.657C443.778 173.187 443.605 172.739 443.34 172.346C443.34 172.346 443.258 172.215 443.29 172.226C443.49 172.29 443.19 172.54 443.149 172.582L443.076 172.614C443.162 172.595 443.157 172.594 443.062 172.61C443.133 172.607 443.203 172.608 443.273 172.611C443.626 172.658 443.983 172.646 444.331 172.574C444.541 172.513 444.732 172.4 444.886 172.245C445.04 172.089 445.152 171.898 445.212 171.687C445.288 171.259 445.209 170.817 444.988 170.441C444.964 170.389 444.841 170.106 444.878 170.209C444.874 170.196 444.814 170.003 444.817 170.003C444.893 170.002 444.735 170.267 444.828 170.08C444.936 169.862 444.723 170.308 444.708 170.249C444.702 170.225 444.851 170.233 444.858 170.233C445.127 170.24 445.391 170.335 445.662 170.345C445.924 170.364 446.187 170.316 446.425 170.205C446.664 170.095 446.871 169.925 447.026 169.713C447.185 169.488 447.262 169.215 447.242 168.94C447.222 168.665 447.108 168.406 446.918 168.206C446.29 167.565 445.268 167.791 444.524 168.063C443.683 168.368 442.914 168.843 442.265 169.458C441.552 170.147 441.011 170.993 440.685 171.929C440.352 173.006 440.153 174.119 440.091 175.243C440.093 175.447 440.174 175.642 440.318 175.786C440.462 175.93 440.657 176.011 440.86 176.013C441.063 176.008 441.256 175.926 441.4 175.783C441.543 175.639 441.625 175.446 441.63 175.243Z" fill="#F2F2F2"/><path d="M441.563 173.635C440.91 172.406 440.129 171.25 439.233 170.186C439.023 169.935 438.806 169.691 438.583 169.452C438.377 169.261 438.187 169.053 438.014 168.832C437.981 168.777 437.989 168.747 437.97 168.735C437.957 168.682 437.956 168.678 437.968 168.725C437.98 168.755 437.981 168.789 437.97 168.821C437.979 168.882 437.909 168.869 437.977 168.81C437.855 168.915 437.76 169.014 437.568 168.955C437.496 168.933 437.449 168.855 437.393 168.826C437.34 168.797 437.408 168.802 437.394 168.845C437.364 168.933 437.285 169.134 437.237 169.251L438.72 169.66C438.74 169.565 438.81 169.47 438.718 169.58C438.752 169.54 438.789 169.502 438.829 169.468C438.779 169.509 438.793 169.504 438.87 169.453C438.763 169.493 438.983 169.419 438.986 169.419C438.837 169.45 439.19 169.45 439.061 169.423C439.2 169.46 439.328 169.53 439.433 169.627C439.539 169.724 439.62 169.846 439.669 169.981C439.826 170.399 439.895 170.845 439.869 171.291C439.872 171.801 439.82 172.31 439.713 172.808C439.663 173.005 439.691 173.213 439.791 173.389C439.892 173.565 440.056 173.696 440.25 173.755C440.446 173.807 440.656 173.78 440.833 173.679C441.01 173.579 441.14 173.413 441.196 173.217C441.504 171.783 441.651 169.925 440.665 168.712C440.453 168.44 440.178 168.223 439.863 168.081C439.549 167.938 439.205 167.874 438.861 167.893C438.482 167.92 438.121 168.066 437.829 168.31C437.538 168.553 437.33 168.883 437.237 169.251C437.182 169.448 437.208 169.658 437.309 169.835C437.41 170.013 437.577 170.143 437.774 170.197C437.97 170.251 438.181 170.225 438.358 170.124C438.536 170.024 438.666 169.857 438.72 169.66C438.849 169.411 438.916 169.135 438.917 168.855C438.917 168.575 438.85 168.298 438.722 168.049C438.588 167.819 438.383 167.639 438.138 167.535C437.893 167.431 437.621 167.411 437.362 167.475C437.105 167.561 436.88 167.722 436.716 167.939C436.552 168.155 436.458 168.415 436.445 168.686C436.443 168.933 436.49 169.177 436.585 169.405C436.679 169.633 436.819 169.839 436.995 170.012C437.578 170.678 438.199 171.295 438.727 172.009C439.289 172.771 439.793 173.574 440.234 174.411C440.285 174.498 440.353 174.575 440.433 174.636C440.514 174.697 440.606 174.741 440.703 174.767C440.801 174.793 440.903 174.799 441.003 174.785C441.103 174.771 441.199 174.738 441.287 174.687C441.374 174.636 441.45 174.568 441.511 174.488C441.572 174.407 441.617 174.316 441.643 174.218C441.668 174.12 441.674 174.018 441.661 173.918C441.647 173.818 441.614 173.722 441.563 173.635Z" fill="#F2F2F2"/><path d="M576 252.105H243.698V253.472H576V252.105Z" fill="#F2F2F2"/><path d="M306.088 192.478C306.088 191.139 304.527 190.053 302.601 190.053C300.675 190.053 299.114 191.139 299.114 192.478C299.114 193.818 300.675 194.904 302.601 194.904C304.527 194.904 306.088 193.818 306.088 192.478Z" fill="#F2F2F2"/><path d="M280.467 200.362C282.393 200.362 283.954 199.276 283.954 197.936C283.954 196.596 282.393 195.51 280.467 195.51C278.541 195.51 276.98 196.596 276.98 197.936C276.98 199.276 278.541 200.362 280.467 200.362Z" fill="#F2F2F2"/><path d="M311.394 212.187C313.319 212.187 314.881 211.101 314.881 209.761C314.881 208.421 313.319 207.335 311.394 207.335C309.468 207.335 307.907 208.421 307.907 209.761C307.907 211.101 309.468 212.187 311.394 212.187Z" fill="#F2F2F2"/><path d="M320.569 217.765C320.399 217.781 320.227 217.766 320.062 217.719C319.69 217.545 319.371 217.274 319.14 216.934C318.909 216.595 318.773 216.199 318.748 215.789C318.647 215.361 318.679 214.912 318.839 214.503C318.999 214.093 319.28 213.742 319.645 213.497C319.744 213.446 319.852 213.412 319.962 213.397C320.805 213.279 321.62 214.167 321.784 215.372C321.947 216.577 321.403 217.647 320.569 217.765Z" fill="#F2F2F2"/><path d="M296.011 206.118C295.172 206.233 294.627 207.304 294.793 208.51C294.959 209.716 295.774 210.6 296.613 210.484C297.451 210.368 297.997 209.297 297.831 208.092C297.664 206.886 296.85 206.002 296.011 206.118Z" fill="#F2F2F2"/><path d="M307.893 201.096C307.726 199.89 306.912 199.006 306.073 199.122C305.234 199.237 304.689 200.309 304.855 201.514C305.021 202.72 305.836 203.604 306.675 203.488C307.513 203.372 308.059 202.301 307.893 201.096Z" fill="#F2F2F2"/><path d="M290.114 195.673C290.953 195.557 291.498 194.486 291.332 193.281C291.166 192.075 290.351 191.191 289.513 191.307C288.674 191.422 288.129 192.494 288.295 193.699C288.461 194.905 289.275 195.789 290.114 195.673Z" fill="#F2F2F2"/><path d="M293.087 213.879C293.08 212.96 292.003 212.223 290.682 212.233C289.361 212.243 288.296 212.996 288.303 213.915C288.31 214.834 289.387 215.571 290.708 215.561C292.029 215.551 293.094 214.798 293.087 213.879Z" fill="#F2F2F2"/><path d="M275.553 219.422C276.874 219.411 277.939 218.658 277.932 217.739C277.925 216.82 276.848 216.084 275.527 216.094C274.206 216.104 273.141 216.857 273.148 217.776C273.155 218.695 274.232 219.432 275.553 219.422Z" fill="#F2F2F2"/><path d="M296.831 227.37C298.152 227.36 299.217 226.607 299.21 225.688C299.203 224.769 298.126 224.032 296.805 224.042C295.484 224.053 294.419 224.806 294.426 225.725C294.433 226.644 295.51 227.38 296.831 227.37Z" fill="#F2F2F2"/><path d="M303.155 231.149C303.038 231.161 302.919 231.151 302.806 231.12C302.55 231.003 302.33 230.818 302.17 230.587C302.009 230.355 301.914 230.084 301.895 229.803C301.823 229.51 301.843 229.202 301.95 228.92C302.058 228.638 302.249 228.396 302.498 228.226C302.566 228.19 302.639 228.166 302.715 228.155C303.292 228.07 303.857 228.675 303.975 229.501C304.093 230.327 303.726 231.063 303.155 231.149Z" fill="#F2F2F2"/><path d="M286.247 223.288C285.672 223.372 285.303 224.11 285.424 224.936C285.544 225.762 286.107 226.364 286.682 226.28C287.257 226.197 287.625 225.459 287.505 224.633C287.385 223.807 286.821 223.205 286.247 223.288Z" fill="#F2F2F2"/><path d="M294.37 219.781C294.25 218.954 293.687 218.352 293.112 218.436C292.537 218.52 292.169 219.257 292.289 220.084C292.409 220.91 292.973 221.512 293.548 221.428C294.122 221.344 294.491 220.607 294.37 219.781Z" fill="#F2F2F2"/><path d="M282.146 216.154C282.721 216.071 283.089 215.333 282.969 214.507C282.849 213.681 282.285 213.079 281.71 213.162C281.136 213.246 280.767 213.984 280.888 214.81C281.008 215.636 281.571 216.238 282.146 216.154Z" fill="#F2F2F2"/><path d="M259.784 210.551C259.774 209.211 258.204 208.137 256.279 208.152C254.353 208.167 252.8 209.265 252.811 210.604C252.821 211.944 254.39 213.018 256.316 213.003C258.242 212.988 259.794 211.89 259.784 210.551Z" fill="#F2F2F2"/><path d="M234.225 218.631C236.15 218.616 237.703 217.518 237.693 216.179C237.682 214.839 236.113 213.765 234.187 213.78C232.262 213.795 230.709 214.892 230.719 216.232C230.729 217.572 232.299 218.646 234.225 218.631Z" fill="#F2F2F2"/><path d="M265.241 230.218C267.167 230.203 268.72 229.105 268.71 227.766C268.699 226.426 267.13 225.352 265.204 225.367C263.278 225.382 261.726 226.479 261.736 227.819C261.746 229.159 263.316 230.233 265.241 230.218Z" fill="#F2F2F2"/><path d="M274.46 235.725C274.289 235.743 274.117 235.729 273.952 235.684C273.578 235.512 273.258 235.244 273.024 234.906C272.79 234.568 272.652 234.174 272.623 233.764C272.519 233.337 272.547 232.888 272.704 232.477C272.861 232.066 273.14 231.713 273.503 231.464C273.602 231.413 273.708 231.378 273.819 231.362C274.661 231.238 275.483 232.12 275.655 233.324C275.828 234.528 275.292 235.601 274.46 235.725Z" fill="#F2F2F2"/><path d="M249.813 224.267C248.975 224.389 248.438 225.465 248.613 226.669C248.789 227.873 249.61 228.751 250.448 228.629C251.286 228.507 251.823 227.432 251.647 226.227C251.472 225.023 250.651 224.145 249.813 224.267Z" fill="#F2F2F2"/><path d="M261.655 219.154C261.48 217.95 260.658 217.072 259.821 217.194C258.983 217.316 258.446 218.392 258.621 219.596C258.796 220.8 259.618 221.678 260.456 221.556C261.293 221.434 261.83 220.359 261.655 219.154Z" fill="#F2F2F2"/><path d="M243.836 213.868C244.673 213.746 245.21 212.671 245.035 211.467C244.86 210.262 244.038 209.385 243.2 209.507C242.363 209.629 241.826 210.704 242.001 211.908C242.176 213.113 242.998 213.99 243.836 213.868Z" fill="#F2F2F2"/><path d="M281.341 204.992C281.341 214.751 258.248 197.32 238.528 211.039C214.463 227.779 194.344 215.834 194.347 204.992C194.35 195.233 214.505 175.698 238.528 175.698C262.55 175.698 281.341 195.233 281.341 204.992Z" fill="#F2F2F2"/><path d="M260.276 193.846C260.276 198.725 250.539 198.579 238.528 198.579C226.516 198.579 216.779 198.725 216.779 193.846C216.779 188.966 226.516 180.908 238.528 180.908C250.539 180.908 260.276 188.966 260.276 193.846Z" fill="#E6E6E6"/><path d="M88.8444 226.498L88.8136 233.347L115.804 236.727L115.85 226.619L88.8444 226.498Z" fill="#FFB6B6"/><path d="M92.5252 233.811L92.1218 226.509L92.0261 224.724L74.7274 223.206L74.7 228.341L79.5478 229.278L74.6863 231.602L74.6248 245.216C74.6213 245.869 74.8268 246.506 75.2112 247.034C75.5956 247.562 76.1388 247.953 76.7614 248.15C77.384 248.347 78.0534 248.34 78.6716 248.129C79.2898 247.919 79.8244 247.516 80.1973 246.98L82.4468 243.759L87.7527 236.142L92.6551 236.163L92.5252 233.811Z" fill="#2F2E41"/><path d="M208.461 215.343C203.948 227.138 200.133 236.266 198.567 237.825C196.83 239.561 185.07 240.286 170.534 240.484C155.19 240.689 136.757 240.313 123.731 239.958H123.724C113.885 239.684 107.13 239.418 107.13 239.418L107.144 235.643L107.178 226.577L107.185 224.765C107.185 224.765 107.513 224.676 108.115 224.492C109.229 224.17 111.294 223.568 114.002 222.769C122.507 220.252 137.304 215.829 148.469 212.218C152.127 211.029 155.402 209.935 157.932 209.018C160.831 207.979 162.759 207.172 163.19 206.742C165.741 204.253 166.869 206.742 168.482 209.224C170.096 211.712 170.595 209.224 172.708 207.398C174.821 205.572 179.586 208.082 179.586 208.082C179.586 208.082 179.627 206.427 179.696 203.795C179.798 199.904 179.949 193.846 180.092 187.788C180.086 187.781 180.086 187.781 180.092 187.781C180.099 187.515 180.106 187.241 180.113 186.974C183.395 189.826 186.902 192.438 190.396 195.706C192.673 197.832 196.147 201.354 198.622 203.87C199.121 204.383 199.764 205.06 200.27 205.593C203.254 208.621 205.993 211.881 208.461 215.343Z" fill="#2F2E41"/><path d="M97.1697 246.17L97.6921 252.998L124.867 254.187L124.096 244.109L97.1697 246.17Z" fill="#FFB6B6"/><path d="M101.428 253.161L100.443 245.92L100.197 244.142L82.8297 244.026L83.2195 249.147L88.1219 249.688L83.4724 252.402L84.5117 265.981C84.5617 266.632 84.8184 267.249 85.2443 267.744C85.6702 268.238 86.243 268.584 86.8791 268.73C87.5151 268.875 88.1812 268.814 88.7799 268.555C89.3787 268.295 89.8788 267.851 90.2073 267.287L96.867 255.869L101.749 255.499L101.428 253.161Z" fill="#2F2E41"/><path d="M214.245 243.671C208.762 252.245 141.215 260.627 115.855 255.869C115.902 255.185 115.978 254.494 116.067 253.804C116.443 250.768 117.147 247.67 117.735 244.594C117.981 243.301 118.214 242.009 118.391 240.724C119.246 240.587 118.309 240.676 119.431 240.498C120.852 240.246 122.285 240.065 123.725 239.958H123.731C124.169 239.924 124.661 239.889 125.242 239.848C138.158 238.966 154.602 242.686 166.144 236.361C169.405 234.57 169.611 234.064 170.089 233.496C172.865 230.173 173.132 232.922 175.525 234.112C177.918 235.302 177.48 233.216 178.151 231.397C178.821 229.579 181.781 229.818 183.497 229.551C181.904 228.074 182.95 227.815 180.318 226.55C176.434 224.676 170 221.914 165.447 220.075C165.432 220.065 165.416 220.058 165.399 220.054C163.477 219.316 160.77 218.146 159.04 217.415C157.7 216.847 155.361 215.781 154.623 215.5C152.996 214.878 150.185 220.758 148.469 219.739C147.861 219.37 147.396 219.083 147.163 218.946C144.271 217.216 146.541 218.119 146.24 216.02C146.199 215.76 146.315 215.09 146.281 214.864C146.206 214.331 146.384 213.442 146.124 213.121C145.857 212.806 144.975 214.393 144.421 214.625C144.175 214.734 143.204 215.493 142.411 215.411C138.993 215.035 136.668 211.699 135.485 208.355C125.53 204.041 118.952 193.962 117.386 184.554C116.06 176.609 118.419 170.264 120.504 165.033C122.378 160.343 122.959 160.992 125.037 157.642C124.976 157.04 124.976 157.197 124.976 157.238C124.976 157.177 124.962 156.931 124.921 156.124C124.812 153.963 124.552 147.584 124.429 144.61C125.287 143.657 126.253 142.808 127.307 142.08C130.541 139.673 135.382 138.292 138.917 137.615C142.945 136.842 148.162 137.396 151.074 137.82C155.614 138.476 157.119 139.359 160.907 140.247C160.913 147.461 162.418 145.451 161.679 154.804C160.934 164.158 186.903 192.438 190.396 195.706C192.673 197.832 196.147 201.354 198.622 203.87C199.121 204.383 199.764 205.06 200.27 205.593C203.169 208.649 209.056 216.225 209.336 216.676C209.692 217.244 209.842 217.688 210.129 218.235C210.136 218.249 219.722 235.096 214.245 243.671Z" fill="#2F2E41"/><path d="M303.344 166.82L301.945 191.365C301.944 191.988 302.066 192.605 302.304 193.18C302.542 193.756 302.892 194.279 303.332 194.72C303.773 195.16 304.296 195.51 304.871 195.748C305.447 195.986 306.064 196.108 306.687 196.107C320.131 202.957 324.328 203.149 336.373 196.107C336.996 196.108 337.613 195.986 338.189 195.748C338.764 195.51 339.287 195.16 339.728 194.72C340.169 194.279 340.518 193.756 340.756 193.18C340.994 192.605 341.116 191.988 341.116 191.365L339.717 166.225L341.116 159.58C341.116 158.957 340.994 158.34 340.756 157.765C340.518 157.189 340.168 156.666 339.728 156.225C339.287 155.785 338.764 155.436 338.189 155.198C337.613 154.959 336.996 154.837 336.373 154.838H306.687C306.064 154.837 305.447 154.959 304.871 155.198C304.296 155.436 303.773 155.785 303.332 156.225C302.892 156.666 302.542 157.189 302.304 157.765C302.066 158.34 301.944 158.957 301.945 159.58L303.344 166.82Z" fill="#E6E6E6"/><path d="M280.261 152.74L278.702 155.856L305.442 171.625L303.344 185.615L276.996 159.268L275.364 162.532L274.847 161.498C274.386 160.576 274.168 159.55 274.214 158.52C274.261 157.489 274.57 156.487 275.112 155.61C275.655 154.732 276.412 154.008 277.313 153.506C278.214 153.003 279.229 152.74 280.261 152.74Z" fill="#E6E6E6"/><path d="M311.038 155.188C311.038 159.245 316.046 162.532 322.23 162.532C328.413 162.532 333.421 159.245 333.421 155.188C333.421 155.069 333.414 154.957 333.407 154.838H311.052C311.045 154.957 311.038 155.069 311.038 155.188Z" fill="#F2F2F2"/><path d="M325.377 143.566C325.376 142.753 325.053 141.973 324.478 141.398C323.902 140.823 323.123 140.499 322.309 140.499H322.15C321.336 140.499 320.556 140.823 319.981 141.398C319.406 141.973 319.083 142.753 319.082 143.566V164.98H325.377V143.566Z" fill="#E6E6E6"/><path d="M201.114 181.104C200.72 180.65 200.237 180.282 199.694 180.024C199.152 179.765 198.561 179.622 197.961 179.602C197.961 179.602 176.245 176.992 173.037 174.787C171.951 174.753 170.892 175.125 170.066 175.831C169.24 176.537 168.707 177.525 168.572 178.603L147.87 182.505C146.891 182.692 146.027 183.259 145.467 184.082C144.906 184.905 144.695 185.917 144.879 186.895C145.064 187.874 145.629 188.739 146.451 189.302C147.272 189.864 148.283 190.078 149.262 189.896L169.859 186.015C170.249 186.927 170.939 187.68 171.815 188.147C172.69 188.615 173.699 188.769 174.675 188.586L197.867 184.215C201.175 183.592 203.319 183.647 201.114 181.104Z" fill="#E6E6E6"/><path d="M140.321 146.821L135.317 98.3535C135.111 96.2995 135.721 94.2468 137.015 92.6385C138.309 91.0302 140.184 89.9952 142.234 89.7568C143.295 89.6335 144.37 89.7275 145.393 90.0331C146.416 90.3388 147.367 90.8496 148.186 91.5344C149.005 92.2193 149.677 93.0639 150.159 94.0167C150.641 94.9694 150.925 96.0105 150.992 97.0763L154.647 147.581L158.161 178.176C159.514 178.573 160.711 179.377 161.591 180.477C162.47 181.578 162.99 182.923 163.079 184.33C163.167 185.736 162.821 187.136 162.087 188.339C161.352 189.542 160.265 190.489 158.974 191.053C157.682 191.616 156.248 191.768 154.867 191.488C153.486 191.209 152.224 190.51 151.253 189.489C150.283 188.467 149.65 187.171 149.442 185.777C149.233 184.384 149.459 182.96 150.088 181.698L140.321 146.821Z" fill="#FFB6B6"/><path d="M131.883 108.69C131.482 108.378 131.195 107.943 131.066 107.452C130.936 106.96 130.972 106.44 131.166 105.971C131.395 105.388 131.437 104.748 131.284 104.14C131.253 104.023 131.215 103.908 131.169 103.795C130.876 103.126 130.749 102.396 130.799 101.668C130.848 100.939 131.073 100.233 131.454 99.6098C132.737 97.5767 133.107 94.7066 133.099 92.1926C133.09 89.4418 132.932 86.65 133.582 83.977C134.52 80.1212 137.487 76.4032 142.333 77.3547C144.388 77.7914 146.23 78.923 147.548 80.5588C150.349 83.9424 150.963 88.3998 151.51 92.6697L152.119 90.8734C152.635 95.5475 154.09 100.069 156.396 104.167C155.336 104.103 154.788 105.589 155.254 106.544C155.721 107.499 156.731 108.033 157.614 108.623C158.728 109.368 159.842 110.544 159.083 112.006C158.891 112.351 158.63 112.652 158.317 112.891C158.003 113.13 157.644 113.302 157.261 113.395C150.061 115.316 142.542 115.726 135.176 114.601C133.54 114.35 131.768 113.936 130.76 112.623C129.752 111.311 130.239 108.884 131.883 108.69Z" fill="#83A26A"/></svg>
