<svg viewBox="0 0 328 268" xmlns="http://www.w3.org/2000/svg"><g clip-path="url(#clip)"><path d="M239.719 220.632C242.311 221.543 245.093 221.771 247.799 221.294C250.505 220.818 253.042 219.652 255.167 217.91C260.577 213.369 262.274 205.887 263.654 198.96L267.737 178.469L259.189 184.354C253.042 188.587 246.757 192.955 242.501 199.085C238.245 205.216 236.387 213.585 239.807 220.218" fill="#E6E6E6"/><path d="M240.449 245.44C239.584 239.139 238.695 232.756 239.302 226.387C239.841 220.73 241.566 215.206 245.08 210.676C246.944 208.276 249.214 206.219 251.785 204.599C252.456 204.176 253.073 205.239 252.405 205.66C247.956 208.472 244.514 212.625 242.577 217.519C240.437 222.961 240.094 228.894 240.462 234.675C240.685 238.171 241.158 241.645 241.634 245.113C241.672 245.27 241.648 245.436 241.569 245.576C241.489 245.716 241.359 245.821 241.205 245.869C241.048 245.911 240.881 245.89 240.739 245.81C240.598 245.73 240.494 245.597 240.449 245.44Z" fill="#F2F2F2"/><path d="M248.782 234.289C249.894 235.979 251.422 237.353 253.219 238.281C255.016 239.209 257.022 239.658 259.043 239.585C264.237 239.338 268.567 235.713 272.465 232.272L283.995 222.092L276.364 221.727C270.876 221.464 265.247 221.219 260.021 222.911C254.794 224.604 249.974 228.676 249.018 234.086" fill="#E6E6E6"/><path d="M238.005 249.063C242.169 241.695 246.998 233.506 255.628 230.889C258.028 230.164 260.544 229.904 263.041 230.124C263.828 230.191 263.632 231.405 262.846 231.337C258.66 230.989 254.483 232.095 251.016 234.467C247.681 236.737 245.084 239.894 242.886 243.241C241.539 245.291 240.333 247.429 239.127 249.563C238.741 250.245 237.615 249.753 238.005 249.063Z" fill="#F2F2F2"/><path d="M135.376 197.302C130.268 199.097 124.783 199.547 119.451 198.608C114.118 197.669 109.118 195.372 104.931 191.939C94.2669 182.988 90.9236 168.243 88.2032 154.589C85.5211 141.128 82.8389 127.666 80.1568 114.205L97.0027 125.804C109.117 134.146 121.505 142.755 129.893 154.837C138.281 166.92 141.942 183.413 135.203 196.487" fill="#E6E6E6"/><path d="M133.936 246.196C135.641 233.776 137.394 221.197 136.198 208.645C135.136 197.497 131.735 186.608 124.811 177.68C121.135 172.95 116.663 168.898 111.595 165.705C110.274 164.87 109.057 166.965 110.373 167.795C119.142 173.337 125.925 181.521 129.743 191.167C133.96 201.893 134.637 213.585 133.911 224.98C133.471 231.87 132.54 238.716 131.601 245.552C131.527 245.861 131.573 246.187 131.73 246.464C131.887 246.74 132.143 246.947 132.447 247.041C132.756 247.125 133.086 247.083 133.365 246.925C133.644 246.766 133.849 246.504 133.936 246.196Z" fill="#F2F2F2"/><path d="M117.513 224.219C115.323 227.549 112.311 230.258 108.769 232.086C105.228 233.914 101.275 234.799 97.2914 234.656C87.0546 234.17 78.5203 227.026 70.8379 220.243L48.1148 200.18L63.1537 199.46C73.9688 198.943 85.0629 198.46 95.3639 201.795C105.665 205.13 115.165 213.157 117.049 223.819" fill="#E6E6E6"/><path d="M138.755 253.335C130.548 238.814 121.029 222.676 104.02 217.518C99.2912 216.088 94.3322 215.576 89.4107 216.009C87.8596 216.143 88.2469 218.534 89.7952 218.4C98.0448 217.715 106.278 219.894 113.11 224.569C119.684 229.043 124.802 235.264 129.135 241.861C131.788 245.902 134.165 250.115 136.543 254.321C137.303 255.666 139.523 254.695 138.755 253.335Z" fill="#F2F2F2"/><path d="M75.414 56.7438L4.75521 41.9401L3.83696 41.7482C3.36933 41.6495 2.88333 41.6848 2.43487 41.8501C1.98641 42.0153 1.5937 42.3038 1.3019 42.6823C1.0101 43.0608 0.831066 43.514 0.785374 43.9897C0.739682 44.4655 0.829198 44.9445 1.04362 45.3716L29.4 102.104C29.5835 102.469 29.8519 102.784 30.1826 103.023C30.5133 103.262 30.8966 103.418 31.3002 103.478C31.7051 103.539 32.1186 103.5 32.5051 103.365C32.8916 103.23 33.2393 103.003 33.5184 102.703L52.8575 82.0674C52.9951 81.9169 53.1623 81.7965 53.3486 81.7138C53.5349 81.6311 53.7364 81.5879 53.9403 81.5868C54.2173 81.5813 54.4907 81.6512 54.7311 81.7891C54.9715 81.9269 55.1699 82.1276 55.305 82.3695L59.335 89.7189C59.5924 90.209 60.0063 90.5989 60.511 90.8266C61.0156 91.0542 61.5818 91.1065 62.1196 90.975L62.1394 90.9705C62.6838 90.8518 63.1724 90.5535 63.5268 90.1236C63.8812 89.6937 64.0807 89.157 64.0932 88.6L64.7907 71.5757C64.799 71.3633 64.8508 71.1548 64.9429 70.9632C65.0419 70.7736 65.1768 70.605 65.3401 70.4668L76.5126 61.184C76.8798 60.8789 77.1537 60.4765 77.3027 60.0229C77.4518 59.5693 77.47 59.0829 77.3554 58.6195C77.2407 58.156 76.9977 57.7342 76.6544 57.4025C76.311 57.0707 75.8811 56.8424 75.414 56.7438ZM75.8668 60.4043L64.6943 69.6872C64.5487 69.8059 64.417 69.9406 64.3015 70.0888L4.63665 43.4558C4.58402 43.4317 4.52915 43.4128 4.47283 43.3994C4.24296 43.3416 4.00013 43.366 3.78633 43.4683C3.57252 43.5706 3.4012 43.7444 3.30197 43.9596C3.20274 44.1749 3.18184 44.418 3.24291 44.647C3.30397 44.876 3.44315 45.0765 3.63637 45.2138L52.7759 80.8627C52.5284 80.9933 52.3052 81.1656 52.1162 81.372L32.7773 102.007C32.6095 102.186 32.401 102.322 32.1696 102.402C31.9382 102.483 31.6907 102.507 31.4481 102.472C31.2055 102.437 30.975 102.343 30.7762 102.2C30.5774 102.057 30.4161 101.867 30.3061 101.648L1.94976 44.9156C1.82297 44.6593 1.77074 44.3725 1.79901 44.0879C1.82727 43.8033 1.93491 43.5324 2.10964 43.306C2.28437 43.0796 2.51917 42.9069 2.7873 42.8074C3.05543 42.708 3.34611 42.6858 3.62621 42.7435L4.56625 42.9408L75.203 57.7392C75.4835 57.7981 75.7416 57.9349 75.948 58.1338C76.1544 58.3327 76.3005 58.5857 76.3698 58.8638C76.4391 59.1419 76.4286 59.4339 76.3396 59.7063C76.2507 59.9788 76.0868 60.2207 75.8668 60.4043Z" fill="#CCCCCC"/><path d="M75.414 56.7438L4.75521 41.9401L3.83696 41.7482C3.36933 41.6495 2.88333 41.6848 2.43487 41.8501C1.98641 42.0153 1.5937 42.3038 1.3019 42.6823C1.0101 43.0608 0.831066 43.514 0.785374 43.9897C0.739682 44.4655 0.829198 44.9445 1.04362 45.3716L29.4 102.104C29.5835 102.469 29.8519 102.784 30.1826 103.023C30.5133 103.262 30.8966 103.418 31.3002 103.478C31.7051 103.539 32.1186 103.5 32.5051 103.365C32.8916 103.23 33.2393 103.003 33.5184 102.703L52.8575 82.0674C52.9951 81.9169 53.1623 81.7965 53.3486 81.7138C53.5349 81.6311 53.7364 81.5879 53.9403 81.5868C54.2173 81.5813 54.4907 81.6512 54.7311 81.7891C54.9715 81.9269 55.1699 82.1276 55.305 82.3695L59.335 89.7189C59.5924 90.209 60.0063 90.5989 60.511 90.8266C61.0156 91.0542 61.5818 91.1065 62.1196 90.975L62.1394 90.9705C62.6838 90.8518 63.1724 90.5535 63.5268 90.1236C63.8812 89.6937 64.0807 89.157 64.0932 88.6L64.7907 71.5757C64.799 71.3633 64.8508 71.1548 64.9429 70.9632C65.0419 70.7736 65.1768 70.605 65.3401 70.4668L76.5126 61.184C76.8798 60.8789 77.1537 60.4765 77.3027 60.0229C77.4518 59.5693 77.47 59.0829 77.3554 58.6195C77.2407 58.156 76.9977 57.7342 76.6544 57.4025C76.311 57.0707 75.8811 56.8424 75.414 56.7438ZM75.8668 60.4043L64.6943 69.6872C64.5487 69.8059 64.4169 69.9406 64.3015 70.0888C64.1973 70.2206 64.1076 70.3632 64.0337 70.5142C63.9563 70.6685 63.8956 70.8306 63.8525 70.9978L63.8536 71.0028C63.8082 71.1769 63.7824 71.3557 63.7769 71.5356L63.0797 88.5599C63.075 88.8946 62.9565 89.2177 62.7438 89.4761C62.531 89.7345 62.2367 89.9129 61.9091 89.9818L61.8992 89.984C61.5765 90.0662 61.2356 90.037 60.9316 89.9011C60.6276 89.7653 60.3784 89.5307 60.2244 89.2354L56.1934 81.8811C55.9857 81.5028 55.6848 81.1839 55.3192 80.9546C54.9537 80.7253 54.5356 80.5932 54.1046 80.5708L54.0998 80.5719C54.0418 80.5695 53.9841 80.567 53.9274 80.5695C53.5254 80.5721 53.1302 80.6727 52.7759 80.8627C52.5284 80.9933 52.3052 81.1656 52.1163 81.3719L32.7773 102.007C32.6095 102.186 32.401 102.322 32.1696 102.402C31.9382 102.483 31.6907 102.507 31.4481 102.472C31.2055 102.437 30.975 102.343 30.7762 102.2C30.5774 102.057 30.4161 101.867 30.3061 101.648L1.94976 44.9156C1.82297 44.6593 1.77074 44.3725 1.79901 44.0879C1.82727 43.8033 1.93491 43.5324 2.10964 43.306C2.28437 43.0796 2.51917 42.9069 2.7873 42.8074C3.05543 42.708 3.34611 42.6858 3.62621 42.7435L4.56625 42.9408L75.203 57.7392C75.4835 57.7981 75.7416 57.9349 75.948 58.1338C76.1544 58.3327 76.3005 58.5857 76.3698 58.8638C76.4391 59.1419 76.4286 59.4339 76.3396 59.7063C76.2507 59.9788 76.0868 60.2207 75.8668 60.4043Z" fill="#3F3D56"/><path d="M64.5273 70.1884L64.1135 71.1154L63.8537 71.0027L63.8526 70.9978L4.23504 44.3905L54.0999 80.5719L54.1047 80.5708L54.2368 80.6709L53.643 81.493L52.776 80.8627L3.63644 45.2137C3.44321 45.0765 3.30403 44.876 3.24297 44.647C3.1819 44.4179 3.20278 44.1748 3.30202 43.9595C3.40125 43.7443 3.57259 43.5705 3.7864 43.4682C4.00021 43.3659 4.24306 43.3415 4.47293 43.3993C4.52925 43.4127 4.58412 43.4316 4.63676 43.4557L64.3016 70.0887L64.5273 70.1884Z" fill="#3F3D56"/><path d="M217.934 141.116L220.513 166.328L220.564 166.845L221.33 174.322L227.624 235.881V235.891L228.847 247.834C228.37 248.476 227.947 249.157 227.584 249.869C226.475 252.058 225.933 254.489 226.007 256.941C226.082 259.393 226.77 261.787 228.01 263.904C231.081 263.132 234.109 262.253 237.095 261.264C243.273 259.233 249.298 256.763 255.124 253.874C254.518 250.54 252.777 247.518 250.196 245.322L243.876 169.393L243.323 162.734L241.521 141.116H217.934Z" fill="#FFB8B8"/><path d="M236.007 72.45C249.04 59.4175 249.04 38.2876 236.007 25.2551C222.975 12.2226 201.845 12.2226 188.812 25.2551C175.78 38.2876 175.78 59.4175 188.812 72.45C201.845 85.4825 222.975 85.4825 236.007 72.45Z" fill="#FFB8B8"/><path d="M150.208 186.59C150.214 186.656 150.219 186.722 150.224 186.783C150.335 188.085 150.859 189.317 151.72 190.3C152.581 191.282 153.734 191.964 155.01 192.244L204.813 203.122C205.245 203.216 205.686 203.264 206.128 203.264C207.464 203.263 208.763 202.825 209.825 202.015C210.888 201.205 211.656 200.07 212.011 198.782C212.118 198.386 212.234 197.98 212.361 197.559V197.554C214.041 191.848 217.041 184.082 221.33 174.322C222.3 172.114 223.337 169.801 224.441 167.383C224.645 166.937 224.853 166.485 225.056 166.033C227.335 161.084 229.878 155.728 232.684 149.963C234.058 147.146 235.095 144.176 235.776 141.116C237.584 133.038 236.87 124.6 233.73 116.94C233.091 115.381 232.353 113.864 231.522 112.398C228.244 106.619 223.599 101.732 217.995 98.1648C212.39 94.5978 205.995 92.4595 199.372 91.9372C198.322 91.8509 197.276 91.8103 196.225 91.8103C185.716 91.8566 175.629 95.9503 168.06 103.241C163.594 107.572 160.202 112.887 158.157 118.763C158.025 119.133 157.903 119.509 157.782 119.884C155.906 125.829 154.401 131.884 153.274 138.015C152.599 141.654 152.051 145.243 151.609 148.74C150.061 161.293 149.593 173.956 150.208 186.59Z" fill="#83A26A"/><path d="M128.276 250.362C158.533 267.56 194.262 272.411 228.01 263.904C231.08 263.132 234.109 262.252 237.095 261.264C234.446 252.626 231.283 244.153 227.624 235.891V235.881C221.523 222.201 215.919 213.831 213.188 210.136C212.74 209.524 212.444 208.814 212.327 208.064C212.209 207.314 212.273 206.547 212.513 205.827L213.361 203.284C213.684 202.322 213.761 201.294 213.587 200.295C213.412 199.295 212.991 198.354 212.361 197.559V197.554C212.305 197.482 212.244 197.411 212.183 197.34C189.997 172.063 151.32 185.854 150.929 185.996L150.736 186.067L150.615 186.235C150.483 186.417 150.351 186.595 150.224 186.783C139.737 201.477 132.768 224.064 128.276 250.362Z" fill="#2F2E41"/><path d="M82.6727 87.6174C82.8395 88.3505 82.9482 89.0957 82.9978 89.8459L141.365 123.518L155.552 115.351L170.677 135.15L146.966 152.05C145.051 153.415 142.744 154.122 140.393 154.065C138.041 154.007 135.772 153.189 133.925 151.732L73.738 104.25C71.0218 105.256 68.0638 105.41 65.2576 104.693C62.4513 103.977 59.9297 102.423 58.0282 100.238C56.1267 98.0533 54.9355 95.3414 54.6128 92.4631C54.2902 89.5847 54.8515 86.6764 56.2221 84.1249C57.5927 81.5734 59.7077 79.4996 62.2856 78.1794C64.8636 76.8592 67.7824 76.3552 70.6538 76.7343C73.5252 77.1135 76.2132 78.3578 78.3601 80.3019C80.5071 82.2459 82.0113 84.7976 82.6727 87.6174Z" fill="#FFB8B8"/><path d="M142.26 123.001V123.006C142.471 123.77 142.83 124.486 143.316 125.112L153.274 138.015L158.02 144.172L162.182 149.562C162.719 150.258 163.399 150.83 164.176 151.239C164.954 151.648 165.81 151.884 166.688 151.933C167.565 151.981 168.442 151.839 169.26 151.518C170.077 151.196 170.816 150.703 171.425 150.07L186.541 134.376L192.779 127.894C196.323 125.128 198.626 121.07 199.183 116.609C199.739 112.148 198.504 107.648 195.748 104.096C192.992 100.544 188.94 98.2304 184.48 97.6619C180.02 97.0934 175.517 98.3166 171.958 101.063L168.06 103.241L145.173 116.042C143.981 116.711 143.046 117.759 142.519 119.02C141.991 120.281 141.9 121.682 142.26 123.001Z" fill="#83A26A"/><path d="M208.275 131.092L209.229 161.571L209.234 161.764C209.261 162.643 209.478 163.505 209.868 164.293C210.259 165.08 210.815 165.774 211.498 166.327C212.181 166.88 212.975 167.279 213.827 167.498C214.678 167.716 215.567 167.748 216.432 167.591L220.564 166.845L221.619 166.652H221.624L225.056 166.033L243.323 162.734L246.821 162.104C247.685 161.947 248.505 161.606 249.226 161.104C249.946 160.601 250.55 159.95 250.996 159.193C251.443 158.437 251.721 157.593 251.812 156.719C251.904 155.846 251.806 154.963 251.526 154.13L241.674 124.96C240.85 120.541 238.307 116.63 234.604 114.082C230.9 111.535 226.338 110.561 221.917 111.372C217.496 112.184 213.577 114.716 211.02 118.412C208.463 122.109 207.476 126.668 208.275 131.092Z" fill="#83A26A"/><path d="M207.128 41.1766C198.55 47.047 187.288 53.0814 178.528 46.8299C172.776 42.7251 170.963 35.1238 173.296 28.4533C177.491 16.4576 189.016 11.1766 200.037 7.12856C214.364 1.86613 229.964 -2.32037 244.754 1.44833C259.544 5.21702 272.615 19.537 269.946 34.5646C267.798 46.6494 256.399 56.705 258.017 68.8719C259.646 81.117 273.417 87.5625 285.574 89.751C297.732 91.9395 311.336 92.6426 320.074 101.375C331.219 112.515 328.436 132.427 317.948 144.188C307.461 155.95 291.634 161.281 276.298 164.905C255.979 169.708 234.002 172.231 214.704 164.262C195.406 156.292 180.388 134.839 185.979 114.723C188.34 106.226 193.903 99.0443 199.279 92.053C204.655 85.0618 210.098 77.751 212.149 69.1735C213.858 62.0256 212.593 53.7265 207.853 48.3648C206.991 47.4263 206.448 46.2388 206.303 44.9727C206.158 43.7066 206.418 42.427 207.045 41.3178L207.128 41.1766Z" fill="#2F2E41"/></g><defs><clipPath id="clip"><rect width="326.454" height="268" fill="white" transform="translate(0.773193)"/></clipPath></defs></svg>
